<?xml version="1.0" standalone="no"?>
<!DOCTYPE svg PUBLIC "-//W3C//DTD SVG 1.1//EN" "http://www.w3.org/Graphics/SVG/1.1/DTD/svg11.dtd" >
<svg xmlns="http://www.w3.org/2000/svg">
<metadata></metadata>
<defs>
<font id="shelleyalive" horiz-adv-x="577" >
<font-face units-per-em="2048" ascent="1638" descent="-410" />
<missing-glyph horiz-adv-x="1431" />
<glyph horiz-adv-x="0" />
<glyph unicode="&#xd;" horiz-adv-x="1431" />
<glyph horiz-adv-x="2613" d="M92 598q-2 47 23.5 77t72.5 36q23 4 47.5 4h47.5q223 2 445 1t446 1h34.5t36.5 4q84 10 103 88q14 76 18 158q4 45 4 89v89v536q0 47 -6 91q-12 84 -96 96q-25 4 -49.5 3t-49.5 1q-23 4 -42 6t-40 8q-47 12 -53 64q-4 51 41 75q16 8 33.5 13.5t36.5 5.5q141 4 285 0 q31 0 56 -13.5t42 -43.5q6 -14 9 -28.5t7 -31.5q2 -16 2 -34.5v-37.5v-452h-2q0 -111 1 -221.5t-1 -220.5q0 -35 -3 -70t-3 -70q0 -90 92 -102q16 -2 33.5 -2h34.5q154 -2 306.5 -1t305.5 -1h45.5t44.5 -4q20 -4 43 -13q45 -23 45 -71q0 -47 -47 -70q-10 -4 -22.5 -8 t-24.5 -6q-20 -2 -38.5 -3t-37.5 -1h-698q-39 0 -76 -7q-63 -6 -96 -63q-16 -29 -30.5 -57.5t-31.5 -57.5q-55 -96 -129.5 -168.5t-175.5 -119.5q-88 -41 -178 -53.5t-186 -6.5q-80 6 -157 24.5t-148 57.5q-123 66 -198 168t-108 238q-10 47 -14 104zM123 1100v383v405 q0 29 6 60q12 84 100 96q16 2 29.5 3t30.5 1q78 -2 155.5 -1t155.5 -3q106 -8 190 -58.5t148 -134.5q31 -41 47 -86t27 -92q23 -100 22.5 -200.5t-30.5 -198.5q-47 -147 -147.5 -233.5t-250.5 -114.5q-35 -6 -67.5 -7t-65.5 -4q-49 -2 -98 -1t-101 1q-10 0 -22 1.5t-25 3.5 q-86 12 -98 94q-6 43 -6 86zM300 1379.5q-1 -50.5 1 -103.5v-43.5t4 -42.5q10 -80 88 -92q119 -18 228 14q164 53 213 217q23 78 22.5 154t-18.5 153q-10 33 -22.5 61.5t-33.5 55.5q-61 84 -155 105q-59 14 -118.5 15t-119.5 -9q-66 -10 -82 -76q-6 -29 -6 -59v-246 q0 -53 -1 -103.5zM319 442q4 -12 7.5 -23t9.5 -22q61 -106 176 -159q84 -41 171 -50.5t179 0.5q184 23 305 164q16 20 32 41.5t22 48.5q8 31 -5.5 54.5t-46.5 33.5q-16 4 -30.5 6.5t-30.5 2.5h-338q-78 0 -155.5 1t-155.5 -1q-23 0 -44.5 -2t-41.5 -9q-33 -8 -46.5 -31.5 t-7.5 -54.5zM1544 216.5v29.5v16h2v74q0 23 23 22h104q20 0 21 -20q2 -20 -21 -25q-12 -2 -24.5 -1t-24.5 -1q-10 0 -16 -2q-8 0 -13 -12q0 -14 13 -16q4 -2 16 -2q6 -2 12 -1t15 -2q25 0 24 -22q0 -23 -26 -23q-8 -2 -16.5 -2h-18.5q-20 0 -21 -22q0 -14 -2 -23 q-4 -20 -24 -16q-20 0 -21 20q-2 14 -2 28.5zM1712 262q0 41 28.5 69.5t69.5 28.5t70 -28.5t29 -69.5t-29 -68.5t-70 -27.5t-69.5 27.5t-28.5 68.5zM1722 1171q10 41 46 55.5t73 -7.5q16 -10 30.5 -25.5t29.5 -30.5q88 -96 215 -88q84 6 141 55q59 49 60 120t-58 122 q-33 29 -70 41t-78 19q-37 6 -74.5 12t-72.5 18q-74 27 -126 76t-77 127q-27 86 2 170t105 141q53 41 116.5 60.5t129 16.5t127 -28.5t110.5 -70.5q43 -39 57 -86q10 -37 -3 -66.5t-46 -40.5q-41 -14 -78 17q-16 12 -30.5 24.5t-30.5 24.5q-51 43 -117.5 46t-113.5 -36 q-27 -20 -39.5 -45t-11.5 -51.5t15.5 -50t41.5 -41.5q41 -27 92 -33q31 -6 62.5 -10t60.5 -13q84 -20 147.5 -65t104.5 -121q49 -92 37.5 -192.5t-80.5 -178.5q-63 -72 -145.5 -105.5t-176.5 -35.5q-96 4 -175.5 34.5t-145.5 102.5q-16 18 -30.5 40t-21.5 46q-8 33 -2 53z M1761 262q0 -20 14 -34.5t37 -12.5q20 0 34 14.5t14 32.5q0 20 -14.5 34.5t-35.5 14.5q-20 0 -34.5 -14t-14.5 -35zM1939 197v65v68q0 33 29 26q8 0 21 -12q12 -14 24 -27.5t27 -27.5q2 -6 12 -10q14 -10 19 8q2 8 2 26q2 4 1 10.5t1 10.5q1 24 24 24t23 -26v-103v-39 q-4 -16 -15 -22q-16 -6 -26 6l-15.5 15.5t-15.5 17.5l-15 15t-16 18q-12 12 -22 8q-8 -4 -8 -21v-18t-2 -19q0 -18 -17 -22q-16 -8 -24 8q-6 8 -7 21zM2150 338q0 20 25 20h66h65q16 0 23 -14q4 -12 -2.5 -21.5t-20.5 -9.5q-6 -2 -18 -2q-23 -2 -23 -24v-80q0 -4 -1 -9 t-1 -10q-4 -23 -22 -22q-20 0 -25 22v19v80q0 20 -23 24q-16 0 -22 2q-25 4 -21 25zM2353 313q4 16 18.5 29.5t32.5 15.5q27 2 58 0q18 0 22 -20q0 -8 -4 -15.5t-14 -9.5t-18.5 -2h-18.5t-12 -2q-8 -4 -9 -10q0 -4 9 -8q4 -2 14 -2q23 0 39 -8q43 -23 33 -68 q-10 -43 -58 -47h-28h-29q-23 0 -27 22q0 20 25 25q10 2 22.5 2h22.5q16 0 16 12q-4 10 -16 11q-10 0 -20.5 1t-20.5 5q-47 20 -37 69z" />
<glyph horiz-adv-x="2613" d="M92 598q-2 47 23.5 77t72.5 36q23 4 47.5 4h47.5q223 2 445 1t446 1h34.5t36.5 4q84 10 103 88q14 76 18 158q4 45 4 89v89v536q0 47 -6 91q-12 84 -96 96q-25 4 -49.5 3t-49.5 1q-23 4 -42 6t-40 8q-47 12 -53 64q-4 51 41 75q16 8 33.5 13.5t36.5 5.5q141 4 285 0 q31 0 56 -13.5t42 -43.5q6 -14 9 -28.5t7 -31.5q2 -16 2 -34.5v-37.5v-452h-2q0 -111 1 -221.5t-1 -220.5q0 -35 -3 -70t-3 -70q0 -90 92 -102q16 -2 33.5 -2h34.5q154 -2 306.5 -1t305.5 -1h45.5t44.5 -4q20 -4 43 -13q45 -23 45 -71q0 -47 -47 -70q-10 -4 -22.5 -8 t-24.5 -6q-20 -2 -38.5 -3t-37.5 -1h-698q-39 0 -76 -7q-63 -6 -96 -63q-16 -29 -30.5 -57.5t-31.5 -57.5q-55 -96 -129.5 -168.5t-175.5 -119.5q-88 -41 -178 -53.5t-186 -6.5q-80 6 -157 24.5t-148 57.5q-123 66 -198 168t-108 238q-10 47 -14 104zM123 1100v383v405 q0 29 6 60q12 84 100 96q16 2 29.5 3t30.5 1q78 -2 155.5 -1t155.5 -3q106 -8 190 -58.5t148 -134.5q31 -41 47 -86t27 -92q23 -100 22.5 -200.5t-30.5 -198.5q-47 -147 -147.5 -233.5t-250.5 -114.5q-35 -6 -67.5 -7t-65.5 -4q-49 -2 -98 -1t-101 1q-10 0 -22 1.5t-25 3.5 q-86 12 -98 94q-6 43 -6 86zM300 1379.5q-1 -50.5 1 -103.5v-43.5t4 -42.5q10 -80 88 -92q119 -18 228 14q164 53 213 217q23 78 22.5 154t-18.5 153q-10 33 -22.5 61.5t-33.5 55.5q-61 84 -155 105q-59 14 -118.5 15t-119.5 -9q-66 -10 -82 -76q-6 -29 -6 -59v-246 q0 -53 -1 -103.5zM319 442q4 -12 7.5 -23t9.5 -22q61 -106 176 -159q84 -41 171 -50.5t179 0.5q184 23 305 164q16 20 32 41.5t22 48.5q8 31 -5.5 54.5t-46.5 33.5q-16 4 -30.5 6.5t-30.5 2.5h-338q-78 0 -155.5 1t-155.5 -1q-23 0 -44.5 -2t-41.5 -9q-33 -8 -46.5 -31.5 t-7.5 -54.5zM1544 216.5v29.5v16h2v74q0 23 23 22h104q20 0 21 -20q2 -20 -21 -25q-12 -2 -24.5 -1t-24.5 -1q-10 0 -16 -2q-8 0 -13 -12q0 -14 13 -16q4 -2 16 -2q6 -2 12 -1t15 -2q25 0 24 -22q0 -23 -26 -23q-8 -2 -16.5 -2h-18.5q-20 0 -21 -22q0 -14 -2 -23 q-4 -20 -24 -16q-20 0 -21 20q-2 14 -2 28.5zM1712 262q0 41 28.5 69.5t69.5 28.5t70 -28.5t29 -69.5t-29 -68.5t-70 -27.5t-69.5 27.5t-28.5 68.5zM1722 1171q10 41 46 55.5t73 -7.5q16 -10 30.5 -25.5t29.5 -30.5q88 -96 215 -88q84 6 141 55q59 49 60 120t-58 122 q-33 29 -70 41t-78 19q-37 6 -74.5 12t-72.5 18q-74 27 -126 76t-77 127q-27 86 2 170t105 141q53 41 116.5 60.5t129 16.5t127 -28.5t110.5 -70.5q43 -39 57 -86q10 -37 -3 -66.5t-46 -40.5q-41 -14 -78 17q-16 12 -30.5 24.5t-30.5 24.5q-51 43 -117.5 46t-113.5 -36 q-27 -20 -39.5 -45t-11.5 -51.5t15.5 -50t41.5 -41.5q41 -27 92 -33q31 -6 62.5 -10t60.5 -13q84 -20 147.5 -65t104.5 -121q49 -92 37.5 -192.5t-80.5 -178.5q-63 -72 -145.5 -105.5t-176.5 -35.5q-96 4 -175.5 34.5t-145.5 102.5q-16 18 -30.5 40t-21.5 46q-8 33 -2 53z M1761 262q0 -20 14 -34.5t37 -12.5q20 0 34 14.5t14 32.5q0 20 -14.5 34.5t-35.5 14.5q-20 0 -34.5 -14t-14.5 -35zM1939 197v65v68q0 33 29 26q8 0 21 -12q12 -14 24 -27.5t27 -27.5q2 -6 12 -10q14 -10 19 8q2 8 2 26q2 4 1 10.5t1 10.5q1 24 24 24t23 -26v-103v-39 q-4 -16 -15 -22q-16 -6 -26 6l-15.5 15.5t-15.5 17.5l-15 15t-16 18q-12 12 -22 8q-8 -4 -8 -21v-18t-2 -19q0 -18 -17 -22q-16 -8 -24 8q-6 8 -7 21zM2150 338q0 20 25 20h66h65q16 0 23 -14q4 -12 -2.5 -21.5t-20.5 -9.5q-6 -2 -18 -2q-23 -2 -23 -24v-80q0 -4 -1 -9 t-1 -10q-4 -23 -22 -22q-20 0 -25 22v19v80q0 20 -23 24q-16 0 -22 2q-25 4 -21 25zM2353 313q4 16 18.5 29.5t32.5 15.5q27 2 58 0q18 0 22 -20q0 -8 -4 -15.5t-14 -9.5t-18.5 -2h-18.5t-12 -2q-8 -4 -9 -10q0 -4 9 -8q4 -2 14 -2q23 0 39 -8q43 -23 33 -68 q-10 -43 -58 -47h-28h-29q-23 0 -27 22q0 20 25 25q10 2 22.5 2h22.5q16 0 16 12q-4 10 -16 11q-10 0 -20.5 1t-20.5 5q-47 20 -37 69z" />
<glyph unicode=" "  horiz-adv-x="1431" />
<glyph unicode="&#x09;" horiz-adv-x="1431" />
<glyph unicode="&#xa0;" horiz-adv-x="1431" />
<glyph unicode="!" horiz-adv-x="884" d="M82 2148q0 33 23.5 56.5t56.5 23.5q35 0 57.5 -23.5t22.5 -56.5q0 -25 17 -43t44 -18q25 0 42 18.5t17 42.5q0 33 24 56.5t56 23.5q35 0 57.5 -23.5t22.5 -56.5q0 -25 17.5 -43t44.5 -18q25 0 42 18.5t17 42.5q0 33 23.5 56.5t56.5 23.5q35 0 57.5 -23.5t22.5 -56.5 q0 -66 -35 -118t-88 -78v-899q0 -18 -6 -33q-25 -55 -52.5 -125t-49 -135.5t-36 -118.5t-14.5 -78q0 -33 -22.5 -56.5t-57.5 -23.5q-33 0 -56.5 23.5t-23.5 56.5q0 25 -15 79t-37.5 119.5t-49.5 135.5t-49 127q-6 12 -6 29v899q-53 27 -88 79t-35 117zM240 203 q0 86 58 144.5t144 58.5t144.5 -58.5t58.5 -144.5q0 -84 -59 -144q-55 -59 -144 -59q-86 0 -144 58.5t-58 144.5zM365 1067q10 -29 35.5 -82.5t48.5 -116.5q25 63 42 117.5t29 83.5v868q-43 12 -78 41q-35 -29 -77 -41v-870zM377 203q0 -29 18.5 -47.5t46.5 -18.5 q29 1 47 19q20 20 21 47q0 29 -19.5 47t-48.5 18t-47 -18.5t-18 -46.5z" />
<glyph unicode="&#x22;" horiz-adv-x="1028" d="M88 1997q0 86 59.5 144.5t145.5 58.5q41 0 78 -15.5t64.5 -43t44 -64.5t16.5 -80q0 -6 -2 -8q2 -4 2 -9q0 -39 -12.5 -91t-41 -102t-79 -90t-125.5 -52h-11q-25 0 -44 16t-23 41q-4 29 12 51.5t45 26.5q14 4 25.5 8t21.5 8q-74 10 -125 66.5t-51 134.5zM225 1997 q0 -29 19.5 -47.5t48.5 -18.5q27 0 45 19q20 18 20 47t-19.5 48t-45.5 19q-29 0 -48.5 -19t-19.5 -48zM535 1997q0 86 58 144.5t144 58.5t144.5 -58.5t58.5 -144.5v-8v-9q0 -39 -11 -91t-41 -102t-80 -90t-126 -52h-10q-25 0 -44.5 16t-23.5 41q-4 29 12.5 51.5t45.5 26.5 q14 4 26 8t23 8q-76 10 -126 66.5t-50 134.5zM670 1997q0 -29 19.5 -47.5t47.5 -18.5q29 0 47 19q18 18 19 47q0 29 -18.5 48t-47.5 19t-48 -19t-19 -48z" />
<glyph unicode="#" horiz-adv-x="1935" d="M78 741q0 39 26.5 66t63.5 27h352l105 340h-295q-37 0 -63.5 26.5t-26.5 65.5q0 37 26.5 63.5t63.5 26.5h352l186 608q12 37 46 54.5t69 6.5q37 -12 54.5 -45.5t6.5 -68.5l-172 -555h379l189 608q10 37 44 54.5t70 6.5q35 -12 52.5 -45.5t7.5 -68.5l-172 -555h325 q37 0 64 -26.5t27 -63.5q0 -39 -27 -65.5t-64 -26.5h-381l-106 -340h326q39 0 64.5 -27t25.5 -66q0 -37 -25.5 -63.5t-64.5 -26.5h-381l-181 -585q-10 -29 -34.5 -46.5t-53.5 -17.5q-10 0 -26 4q-37 10 -54.5 44t-7.5 71l166 530h-379l-182 -585q-10 -29 -33.5 -46.5 t-52.5 -17.5q-10 0 -27 4q-37 10 -54 44t-7 71l164 530h-295q-37 0 -63.5 27t-26.5 63zM711 834h379l104 340h-379z" />
<glyph unicode="$" horiz-adv-x="2060" d="M105.5 515q3.5 52 22.5 101.5t60 88.5q39 37 87.5 54t98.5 16t99 -20.5t92 -58.5q29 -25 30 -61.5t-26 -65.5t-63.5 -30.5t-65.5 24.5q-25 23 -60.5 30t-64.5 -22q-29 -27 -28.5 -71.5t16.5 -67.5q2 -2 6 -10q2 -6 34 -42t104.5 -79t192.5 -81t300 -46v797 q-563 4 -747 243q-125 164 -60 402q2 2 2 6q4 20 16.5 50t36 65t61.5 72.5t91 74.5q113 80 263.5 123t336.5 53v170q0 39 26.5 66.5t65.5 27.5q41 0 67.5 -27.5t26.5 -66.5v-172q121 -6 213.5 -25.5t163 -45t120.5 -55t87 -56.5q4 -4 6 -5t4 -3q4 -2 9 -6q47 -37 75.5 -82 t38.5 -95.5t1 -101.5t-40 -98q-29 -43 -69.5 -71t-89 -37t-101.5 -1t-104 37q-33 18 -43.5 54t8.5 71q18 33 54 43t71 -8q12 -6 28.5 -12.5t33 -6.5t32.5 6.5t27 22.5q23 35 13.5 70t-44.5 63l-18 13q-18 14 -53.5 36.5t-91.5 45t-137 41t-194 24.5v-725q545 -19 738 -252 q129 -150 88 -369v-6q-4 -23 -16.5 -58.5t-37 -78.5t-63.5 -90t-94 -92q-41 -33 -98.5 -68t-133 -64.5t-171 -51t-212.5 -27.5v-172q0 -39 -26.5 -66.5t-67.5 -27.5q-39 0 -65.5 27.5t-26.5 66.5v170q-213 8 -358.5 55t-236.5 103.5t-135 107.5t-56 70q-27 37 -39.5 86 t-9 101zM293 1464.5q0 -32.5 9 -68.5t36 -71q23 -29 62.5 -57.5t105.5 -53.5v560q-27 -14 -51 -31q-76 -49 -106 -95t-34 -59q-2 -6 -6 -22t-10 -43t-6 -59.5zM688 1169q53 -8 115.5 -12t136.5 -4v725q-147 -10 -252 -37v-672zM1126 176q156 12 275 51v713q-57 10 -125 17.5 t-150 11.5v-793zM1583 315q10 8 20.5 15.5t20.5 15.5q43 33 70.5 66.5t44 61.5t23.5 47.5t10 27.5q0 8 2 14q8 41 4 100.5t-54 118.5q-23 27 -55.5 52.5t-85.5 48.5v-568z" />
<glyph unicode="%" horiz-adv-x="1613" d="M84 1559q-4 137 88 237q96 98 231 102q2 2 11 3q66 0 124 -24t105 -71q47 -45 71.5 -102t28.5 -123q2 -68 -21.5 -129t-67.5 -107.5t-103 -74t-127 -29.5h-10q-134 0 -230 92q-47 45 -72.5 102.5t-27.5 123.5zM113 -78q0 49 16 93t46 80t69 60.5t86 34.5l786 1682 q-74 31 -121 99.5t-47 154.5q0 39 26.5 65.5t65.5 26.5q37 0 63.5 -26.5t26.5 -65.5t28 -65.5t67 -26.5t65.5 26.5t26.5 65.5t26.5 65.5t65.5 26.5q37 0 63.5 -26.5t26.5 -65.5q0 -92 -54 -164t-140 -98l-793 -1696q68 -35 110 -100.5t42 -145.5q0 -39 -27 -65.5t-64 -26.5 q-39 0 -65.5 26.5t-26.5 65.5t-26.5 65.5t-65.5 26.5t-66.5 -26.5t-27.5 -65.5t-25.5 -65.5t-64.5 -26.5t-65.5 26.5t-26.5 65.5zM256 1565q4 -66 47 -109q49 -47 115 -43q66 2 110.5 49t42.5 113q-4 66 -49 108q-45 45 -108 46h-6q-64 -5 -109 -52q-45 -49 -43 -112z M870 467q-4 66 19.5 127t68.5 108q47 49 105.5 76t124.5 29h12q131 0 230 -92q47 -45 71.5 -103.5t28.5 -124.5q2 -68 -22.5 -128t-67.5 -106t-102.5 -74.5t-127.5 -31.5h-10q-66 0 -124 24t-105 71q-47 45 -73 102t-28 123zM1042 473q0 -31 12.5 -58.5t35.5 -49.5 q44 -46 114 -46q66 4 111 51.5t43 112.5q-4 66 -49 109q-47 43 -109 43h-6q-66 -4 -109 -49q-47 -47 -43 -113z" />
<glyph unicode="&#x26;" horiz-adv-x="1904" d="M86 657q0 106 29.5 203.5t84 180.5t130.5 147.5t166 107.5q-72 63 -113 151.5t-41 192.5q0 94 35 177.5t95 145.5t142 100t177 42h8h4h4h10q92 -4 174 -42t143.5 -100t96.5 -145t35 -178q0 -39 -28 -65.5t-67 -26.5t-65.5 27t-26.5 65q0 57 -21.5 108.5t-59 89.5 t-88 60.5t-107.5 22.5t-107.5 -22.5t-87.5 -60.5t-58.5 -89t-21.5 -109q0 -59 21.5 -109t59.5 -89t89.5 -60.5t108.5 -21.5q39 0 66.5 -26.5t27.5 -65.5t-27.5 -66.5t-66.5 -27.5q-4 0 -6 1t-6 1q-2 0 -3 -1t-4 -1q-106 0 -200 -41t-165 -111t-112 -164t-41 -201 q0 -123 52.5 -227t142.5 -176q-25 68 -25 141q0 86 33 161t88 130t130 87t159 32q33 0 54.5 -21.5t21.5 -52.5q0 -33 -21.5 -54.5t-54.5 -21.5q-53 0 -101.5 -20.5t-83 -56t-55 -82.5t-20.5 -101q0 -94 59.5 -165.5t149.5 -88.5q106 0 200.5 41t165 110.5t111.5 164 t41 200.5t-43 205q-29 61 -29 125q0 39 27.5 65.5t66.5 26.5t66 -26.5t27 -65.5q0 -27 10 -45v-2q14 -29 39.5 -44t56.5 -15q43 0 73.5 30.5t30.5 75.5q0 39 28 65.5t65 26.5q39 0 66.5 -26.5t27.5 -65.5q0 -61 -22.5 -113.5t-62.5 -92.5t-93.5 -62.5t-112.5 -22.5h-19.5 t-19.5 2q2 -10 2 -20v-21q0 -145 -55 -273t-150.5 -223t-223.5 -150.5t-273 -55.5h-6h-5q-145 0 -273 55.5t-223 150.5t-150.5 223t-55.5 273z" />
<glyph unicode="'" horiz-adv-x="579" d="M86 1997q0 86 59.5 144.5t145.5 58.5q41 0 78 -15.5t64.5 -43t44 -64.5t16.5 -80q0 -6 -2 -8q2 -4 2 -9q0 -39 -12.5 -91t-41 -102t-79 -90t-125.5 -52h-11q-25 0 -44 16t-23 41q-4 29 12 51.5t45 26.5q14 4 25.5 8t21.5 8q-74 10 -125 66.5t-51 134.5zM223 1997 q0 -29 19.5 -47.5t48.5 -18.5q27 0 45 19q20 18 20 47t-19.5 48t-45.5 19q-29 0 -48.5 -19t-19.5 -48z" />
<glyph unicode="(" horiz-adv-x="700" d="M80 1024q0 205 23.5 399.5t68.5 370.5t111.5 328.5t150.5 275.5q23 33 60.5 40t70.5 -15q31 -23 38 -61t-15 -70q-76 -109 -135.5 -250t-101.5 -304t-63.5 -344.5t-21.5 -369.5t21.5 -369.5t63.5 -344.5t101.5 -304t135.5 -250q23 -33 15.5 -70.5t-38.5 -60.5 q-26 -16 -53 -16q-49 0 -78 41q-84 123 -150.5 275.5t-111.5 327.5t-68.5 369.5t-23.5 401.5z" />
<glyph unicode=")" horiz-adv-x="700" d="M97 -301.5q-7 37.5 16 70.5q76 109 135 250t100 303.5t63.5 344t22.5 369.5t-22.5 369.5t-63.5 344.5t-100.5 304t-134.5 250q-23 33 -16 71t38 60q26 16 53 16q49 0 78 -41q84 -123 150.5 -275.5t111.5 -327.5t69 -370.5t24 -400.5t-24 -399.5t-69 -370.5t-111.5 -328.5 t-150.5 -275.5q-23 -33 -60.5 -40t-70.5 16q-31 23 -38 60.5z" />
<glyph unicode="*" horiz-adv-x="747" d="M92 1853q10 27 35 39.5t51 1.5l129 -43v136q2 29 21.5 48t48.5 19t49 -20.5t18 -48.5l-2 -136l129 41q29 8 52.5 -4t33.5 -41q8 -29 -4 -52.5t-41 -33.5l-129 -41l78 -108q16 -23 11 -51.5t-27 -45.5q-18 -12 -39 -12q-37 0 -55 29l-78 110l-82 -108q-20 -27 -55 -27 q-23 0 -41 13q-23 16 -26 44.5t13 51.5l80 108l-127 43q-29 10 -41 35t-2 53z" />
<glyph unicode="+" horiz-adv-x="954" d="M74 1024q0 33 22.5 56.5t57.5 23.5h243v244q0 33 22.5 56t57.5 23q33 0 56.5 -23.5t23.5 -55.5v-244h244q33 0 56.5 -23.5t23.5 -56.5q0 -35 -23.5 -57.5t-56.5 -22.5h-244v-244q0 -33 -23.5 -56t-56.5 -23q-35 0 -57.5 23.5t-22.5 55.5v244h-243q-35 0 -57.5 22.5 t-22.5 57.5z" />
<glyph unicode="," d="M86 199q0 41 15.5 77.5t43 64.5t64.5 44t80 16t80 -16t64.5 -44t43 -64.5t15.5 -77.5v-4v-15q0 -39 -11.5 -91t-41 -102t-80 -89t-126.5 -52q-2 0 -4 -1t-6 -1q-25 0 -44 16.5t-23 43.5q-4 29 12 51t45 27q25 2 49 16q-76 10 -126 66.5t-50 134.5zM223 199 q0 -29 18.5 -48.5t47.5 -19.5q27 1 47 21t20 47q0 29 -19.5 47t-47.5 18q-29 0 -47.5 -18.5t-18.5 -46.5z" />
<glyph unicode="-" horiz-adv-x="1318" d="M91 1025.5q1 14.5 48 23.5l324 47q47 6 77.5 31.5t26.5 54.5q-4 31 25 42t74 -3l516 -162q47 -14 45 -28.5t-49 -22.5l-324 -47q-47 -6 -76.5 -32t-25.5 -55q4 -31 -25 -42t-74 4l-518 161q-45 14 -44 28.5z" />
<glyph unicode="." d="M86 201q0 86 58.5 144t144.5 58t144.5 -58t58.5 -144q0 -84 -60 -144q-55 -59 -143 -59q-86 0 -144.5 58.5t-58.5 144.5zM223 201q0 -29 18.5 -47.5t47.5 -18.5q29 1 47 19q20 20 20 47q0 29 -19.5 48t-47.5 19q-29 0 -47.5 -19.5t-18.5 -47.5z" />
<glyph unicode="/" horiz-adv-x="1269" d="M76 -76q0 92 54 164t140 98l525 1696q-68 35 -110 100.5t-42 145.5q0 39 26.5 65.5t63.5 26.5q39 0 65.5 -26.5t26.5 -65.5t27 -65.5t66 -26.5t66.5 26.5t27.5 65.5t25.5 65.5t64.5 26.5t65.5 -26.5t26.5 -65.5q0 -49 -16.5 -93t-46 -80t-69.5 -60.5t-85 -34.5 l-518 -1682q74 -31 121 -99.5t47 -154.5q0 -39 -27 -65.5t-65 -26.5q-37 0 -64 26.5t-27 65.5t-27.5 65.5t-66.5 26.5t-65.5 -26.5t-26.5 -65.5t-26.5 -65.5t-65.5 -26.5q-37 0 -63.5 26.5t-26.5 65.5z" />
<glyph unicode="0" horiz-adv-x="1935" d="M88 1022q0 256 64.5 461t189.5 348q117 133 273.5 203.5t338.5 70.5q8 0 13 -2q4 2 12 2q184 0 340.5 -70.5t273.5 -203.5q125 -143 189.5 -348t64.5 -461q0 -522 -254 -807q-117 -133 -275.5 -200.5t-350.5 -67.5q-188 0 -347 67.5t-276 200.5q-256 287 -256 807z M299 1022q0 -221 52 -389t153 -281l764 1475q-63 33 -135 50t-154 17h-12h-13q-152 0 -273.5 -60t-206.5 -174t-130 -274.5t-45 -363.5zM674 223q127 -65 293 -65q160 0 284.5 57t209.5 168t130 271.5t45 367.5q0 217 -52 386t-150 284z" />
<glyph unicode="1" horiz-adv-x="1284" d="M92 1614q0 41 29 69l336 336q29 29 73 29h7h526q41 0 69.5 -28.5t28.5 -69.5t-28.5 -70t-69.5 -29h-29v-1499q72 -35 117 -102.5t45 -151.5q0 -41 -28.5 -69.5t-69.5 -28.5t-70 28.5t-29 69.5q0 35 -25.5 59.5t-60.5 24.5t-59.5 -24.5t-24.5 -59.5q0 -41 -28.5 -69.5 t-69.5 -28.5t-69.5 28.5t-28.5 69.5q0 35 -24.5 59.5t-59.5 24.5t-60.5 -24.5t-25.5 -59.5q0 -41 -28.5 -69.5t-69.5 -28.5t-69 28.5t-28 69.5q0 84 44 151.5t116 102.5v1362l-168 -170q-29 -29 -69.5 -28.5t-69.5 28.5q-29 29 -29 70zM625 369q63 -21 106 -58q43 39 109 58 v1482h-215v-1482z" />
<glyph unicode="2" horiz-adv-x="1961" d="M98 96.5q-2 40.5 27 71.5l1413 1546l8 8q-68 88 -200 133.5t-324 45.5q-283 0 -453 -87.5t-221 -252.5q-10 -39 7.5 -74t52.5 -45q33 -10 61 6q31 16 45 57q10 41 46 60.5t77 7.5q41 -10 60.5 -47t9.5 -78q-35 -119 -142 -176q-66 -35 -135 -35q-43 0 -84 14 q-55 16 -98 54t-69.5 87.5t-33 108t10.5 115.5v2q59 197 233 321q233 162 633 162q506 0 698 -276q84 -119 95.5 -276.5t-50.5 -327.5q-25 -66 -62.5 -121.5t-78.5 -98.5q-2 -2 -3 -4t-5 -4l-713 -792h682q37 0 62 26q27 27 26 68q0 39 -25.5 66.5t-60.5 27.5 q-41 0 -70.5 30t-29.5 70q0 41 29.5 71t70.5 30q59 0 111.5 -24.5t91.5 -64.5t61.5 -93.5t22.5 -114.5q0 -59 -21.5 -112.5t-62.5 -94.5q-86 -86 -205 -86h-2h-1370h-8h-6q-41 0 -68 27q-31 29 -33 69.5zM426 201h207l801 889q8 12 14 18q35 35 71.5 82t57.5 100 q12 33 25.5 89.5t13.5 121.5z" />
<glyph unicode="3" horiz-adv-x="1947" d="M123 523.5q6 58.5 32.5 108.5t69.5 87t101 55q111 35 217 -22q109 -57 143 -177q10 -41 -9.5 -77.5t-60.5 -46.5q-41 -12 -76.5 7t-47.5 60q-10 37 -43 57q-31 16 -64 7q-35 -10 -52.5 -45t-6.5 -74q0 -2 1 -3t1 -3q14 -41 46 -94.5t100.5 -101.5t185 -82t298.5 -34 q199 0 341.5 49.5t226.5 147.5l-719 805q-31 33 -27 74t35 69l649 559h-1024q-35 0 -61 -26q-27 -31 -27 -68q0 -39 25.5 -66.5t60.5 -27.5q41 0 71 -31t30 -71q0 -41 -30 -71t-71 -30q-59 0 -112.5 24.5t-92 64.5t-60 94.5t-21.5 115.5q0 59 21.5 112.5t62.5 94.5 q86 86 204 86h1295q33 0 58.5 -18.5t35.5 -46.5q10 -29 3 -60t-32 -51l-497 -430l333 -365q2 -4 3 -5t3 -5q41 -43 80 -98.5t64 -120.5q55 -154 37.5 -309.5t-105.5 -280.5q-37 -53 -98 -109.5t-152.5 -102.5t-216.5 -74.5t-293 -28.5q-342 0 -545.5 113.5t-281.5 349.5h2 q-16 57 -10 115.5zM1024 1204l596 -665q10 59 4 120.5t-29 120.5q-20 53 -57 100.5t-72 82.5q-4 4 -7 8t-5 8l-305 334z" />
<glyph unicode="4" horiz-adv-x="1945" d="M76 604v2q0 41 26 68l875 1331l6 6v2q12 12 21 17l4 4q4 0 8 4l8 4h4q8 4 12 4h2q4 2 13 2h2h2h536q41 0 70 -28.5t29 -69.5t-29 -70t-70 -29h-28v-1146h196q41 0 69 -29t28 -70t-28 -68.5t-69 -27.5h-196v-160q72 -35 115.5 -101.5t43.5 -150.5q0 -41 -28.5 -69.5 t-69.5 -28.5t-68.5 28.5t-27.5 69.5q0 35 -25.5 59.5t-60.5 24.5t-59.5 -24.5t-24.5 -59.5q0 -41 -28.5 -69.5t-69.5 -28.5t-70 28.5t-29 69.5q0 35 -24.5 59.5t-59.5 24.5t-60.5 -24.5t-25.5 -59.5q0 -41 -27.5 -69.5t-68.5 -28.5t-69.5 28.5t-28.5 69.5q0 84 44 150.5 t116 101.5v160h-764q-27 -6 -52 0q-31 10 -50 35.5t-19 58.5zM358 705h603v923zM1157 369q57 -18 107 -58q49 39 106 58v141h-213v-141zM1157 705h213v1146h-213v-1146z" />
<glyph unicode="5" horiz-adv-x="1902" d="M122 506.5q9 58.5 36.5 107t71.5 84t102 52.5q55 16 111.5 9t105.5 -36q106 -61 137 -182q10 -41 -11.5 -77t-62.5 -46t-75.5 10.5t-44.5 60.5q-8 39 -43 60q-31 16 -64 8q-35 -10 -53.5 -44t-7.5 -73v2q0 -4 6 -27.5t27.5 -56t62.5 -71.5t110.5 -72t174 -54.5 t251.5 -21.5q78 0 149 8.5t130 24.5v913q-14 6 -27.5 12.5t-29.5 10.5q-106 37 -222 48t-230 4t-221.5 -26.5t-197.5 -41.5q-49 -12 -86 18q-39 29 -39 78v762q0 14 2 20q6 35 34 57.5t65 22.5h1116q59 0 111.5 -22.5t91 -61.5t61.5 -92t23 -113q0 -59 -23 -111.5t-61.5 -92 t-91 -62t-111.5 -22.5q-41 0 -71 29.5t-30 72.5q0 41 30 70.5t71 29.5q35 0 60.5 25.5t25.5 60.5q0 37 -25.5 62.5t-60.5 25.5h-627v-485q201 6 344.5 -30t238.5 -83t145 -93t65 -64q45 -47 94 -109.5t78 -140.5q59 -164 43.5 -325t-101.5 -286q-63 -92 -151 -149 t-185.5 -89t-198 -44t-188.5 -12q-240 0 -394 50t-245.5 120.5t-131.5 144.5t-52 121q-2 4 -3 8t-3 8q-14 57 -5 115.5zM383 1317q49 10 96 18t92 13v501h-188v-532zM1438 268q46 37 75 80q59 86 67.5 197.5t-32.5 228.5q-18 47 -49 88t-61 76v-670z" />
<glyph unicode="6" horiz-adv-x="1708" d="M86 981q0 229 62.5 431t179.5 355q125 164 296 250t371 86q158 0 263.5 -41t169 -93t91 -99t31.5 -58q53 -102 23 -215q-16 -55 -51 -101t-88 -75q-68 -37 -144 -37q-78 0 -146.5 39t-109.5 111q-20 37 -9 77t48 60t76 9t61 -48q18 -33 54 -43t71 8q33 18 45 56 q10 37 -10 69q-2 6 -6 15q-4 6 -22.5 33.5t-60.5 56t-111.5 52.5t-174.5 24q-154 0 -281.5 -65.5t-226.5 -192.5q-92 -117 -142 -276t-56 -339q25 31 54.5 58.5t64.5 52.5q90 63 198.5 100t223 45t228.5 -13.5t214 -72.5q168 -86 258 -234.5t90 -340.5q0 -63 -10.5 -138 t-40 -150t-82.5 -144.5t-139 -124t-208 -87t-288 -32.5q-217 0 -376 91t-255 269q-68 125 -101.5 293t-33.5 379zM351 690q-11 -72 3 -162v-24q125 -354 498 -354q29 0 55.5 1t53.5 3q78 23 129 92t51 162q0 55 -18.5 102t-51.5 83t-75 56.5t-91 20.5q-35 0 -58.5 23.5 t-23.5 58.5t23.5 58.5t58.5 23.5q82 0 155 -34t127 -91.5t86 -135t32 -165.5q0 -70 -23 -138q21 14 37 37q98 113 98 318q0 86 -21.5 150.5t-56 111.5t-76.5 79.5t-83 53.5q-76 39 -162 55.5t-173 10t-169 -33t-150 -75.5q-37 -27 -73.5 -67t-63.5 -94t-38 -126z" />
<glyph unicode="7" horiz-adv-x="1875" d="M88 1763q0 57 22.5 109.5t60.5 90.5t89 60.5t111 22.5h864h438h4q25 0 43 -8q37 -16 52.5 -54t-0.5 -75l-336 -783h153q35 0 57.5 -22.5t22.5 -56.5q0 -33 -22.5 -56.5t-57.5 -23.5h-223l-272 -629q61 -39 98 -101.5t37 -140.5q0 -41 -29 -69.5t-70 -28.5t-69.5 28.5 t-28.5 69.5q0 35 -25.5 60.5t-60.5 25.5t-60.5 -25.5t-25.5 -60.5q0 -41 -28.5 -69.5t-69.5 -28.5t-69.5 28.5t-28.5 69.5q0 35 -26 60.5t-60 25.5q-35 0 -60.5 -25.5t-25.5 -60.5q0 -41 -29 -69.5t-70 -28.5t-69.5 28.5t-28.5 69.5q0 78 38 142.5t101 101.5l271 627h-152 q-33 0 -56.5 23.5t-23.5 56.5q0 35 23.5 57t56.5 22h221l309 723h-712q-35 0 -60.5 -25.5t-25.5 -60.5t25.5 -60.5t60.5 -25.5q41 0 69.5 -28.5t28.5 -69.5t-28.5 -69.5t-69.5 -28.5q-59 0 -110.5 22.5t-89.5 60.5t-60.5 89t-22.5 110zM659 367q60 -19 103 -56q57 51 133 64 l637 1474h-234z" />
<glyph unicode="8" horiz-adv-x="1851" d="M90 625q-4 133 39 244.5t129 197.5q94 94 229 150q-188 139 -192 382q-2 102 30.5 190.5t98.5 154.5q86 84 212 128t282 39h8h8q143 -2 260 -39.5t200 -105.5t129 -164t48 -213q2 -102 -30 -188t-97 -152q-27 -26 -68 -57q180 -84 280.5 -233.5t104.5 -348.5 q4 -133 -38 -243.5t-126 -196.5q-106 -109 -269 -164t-372 -55q-4 0 -9 1t-9 1h-2q-193 2 -348.5 50t-265 135t-170 210t-62.5 277zM295 629q2 -106 40 -183t97.5 -129.5t132 -84t143 -48t132 -21.5t98.5 -5q20 -2 38.5 -1t37.5 1q84 18 139 91t55 171q0 55 -18.5 103 t-51 85t-76.5 57.5t-93 20.5q-35 0 -59.5 24.5t-24.5 59.5t24.5 59.5t59.5 24.5q84 0 158.5 -34t130 -93t87 -138t31.5 -169q0 -51 -11 -98.5t-30 -90.5q35 16 63.5 37.5t53.5 44.5q109 111 104 293q-2 127 -57 216t-142 145.5t-195.5 83t-219.5 30.5h-2h-33h-4h-2 q-164 4 -292 -38t-206 -121q-113 -113 -108 -293zM500 1604q0 -35 14 -88.5t60.5 -103.5t133.5 -87t234 -39q121 -2 212 25.5t144 81.5q70 74 68 192q0 29 -12.5 82t-56.5 105.5t-130 92.5t-235 42h-8h-9h-2q-111 2 -200 -27t-142 -82q-74 -72 -71 -194z" />
<glyph unicode="9" horiz-adv-x="1679" d="M86 1430q0 129 47 245.5t139 208.5q100 100 238.5 151.5t306.5 51.5q451 0 641 -324q70 -117 102.5 -273.5t32.5 -371.5q0 -252 -58 -459.5t-173 -361.5q-121 -164 -288 -248t-372 -84q-123 0 -206.5 25.5t-130.5 54.5q-6 2 -15 6q-51 29 -85 75t-50 101q-31 117 29 222 q29 51 73.5 85.5t102.5 51.5q117 31 221 -29q37 -23 48 -62.5t-11 -76.5q-20 -37 -61.5 -48.5t-77.5 11.5q-31 18 -66 8t-53 -41t-8 -67q6 -27 24 -41h2l-2 2q2 -2 18.5 -13.5t48.5 -25t82 -24.5t117 -11q154 0 279 63.5t217 186.5q78 104 124 244.5t62 310.5 q-102 -98 -249.5 -149.5t-329.5 -51.5q-164 0 -300 51t-235 152q-90 92 -137 207.5t-47 247.5zM289 1430q0 -117 46 -203t119.5 -142.5t166 -83t184.5 -26.5q160 0 280.5 46t188.5 132q55 72 72.5 162t-5.5 188q-2 8 -3 14.5t-1 12.5q-57 186 -184 270t-336 84q-23 0 -44 -1 t-42 -3q-78 -23 -130 -93.5t-52 -164.5q0 -55 18.5 -102t51 -83t75.5 -56.5t92 -20.5q35 0 58.5 -24.5t23.5 -59.5t-23.5 -58.5t-58.5 -23.5q-84 0 -157.5 34t-128 92t-86 136t-31.5 166q0 25 2 47.5t6 44.5q-49 -59 -75.5 -132t-26.5 -152z" />
<glyph unicode=":" horiz-adv-x="581" d="M88 201q0 86 58.5 144t144.5 58t144.5 -58t58.5 -144q0 -84 -60 -144q-55 -59 -143 -59q-86 0 -144.5 58.5t-58.5 144.5zM88 1249q0 86 58.5 144.5t144.5 58.5t144.5 -58.5t58.5 -144.5q0 -84 -60 -143q-55 -59 -143 -59q-86 0 -144.5 58t-58.5 144zM225 201 q0 -29 18.5 -47.5t47.5 -18.5q29 1 47 19q20 20 20 47q0 29 -19.5 48t-47.5 19q-29 0 -47.5 -19.5t-18.5 -47.5zM225 1249q0 -29 18.5 -47t47.5 -18t47 18q20 20 20 47q0 29 -19 48.5t-48 19.5t-47.5 -19.5t-18.5 -48.5z" />
<glyph unicode=";" d="M86 199q0 41 15.5 77.5t43 64.5t64.5 44t80 16t80 -16t64.5 -44t43 -64.5t15.5 -77.5v-4v-15q0 -39 -11.5 -91t-41 -102t-80 -89t-126.5 -52q-2 0 -4 -1t-6 -1q-25 0 -44 16.5t-23 43.5q-4 29 12 51t45 27q25 2 49 16q-76 10 -126 66.5t-50 134.5zM86 1247q0 41 15.5 78 t43 64.5t64.5 44t80 16.5t80 -16.5t64.5 -44t43 -64.5t15.5 -78q0 -88 -60 -143q-55 -60 -143 -60q-86 0 -144.5 58.5t-58.5 144.5zM223 199q0 -29 18.5 -48.5t47.5 -19.5q27 1 47 21t20 47q0 29 -19.5 47t-47.5 18q-29 0 -47.5 -18.5t-18.5 -46.5zM223 1247q0 -29 18.5 -48 t47.5 -19q27 0 47 20t20 47q0 29 -19 47.5t-48 18.5t-47.5 -18.5t-18.5 -47.5z" />
<glyph unicode="&#x3c;" horiz-adv-x="743" d="M72 1028q0 37 30 64l414 317q27 20 58.5 16t52.5 -30q20 -27 16 -59.5t-31 -53.5l-329 -254l329 -254q27 -20 31 -53t-16 -59q-23 -31 -64 -31q-29 0 -47 16l-414 318q-31 25 -30 63z" />
<glyph unicode="=" horiz-adv-x="991" d="M92 866q0 33 22.5 56.5t57.5 23.5h647q33 0 56.5 -23.5t23.5 -56.5q0 -35 -23.5 -57.5t-56.5 -22.5h-647q-35 0 -57.5 22.5t-22.5 57.5zM92 1182q0 33 22.5 56.5t57.5 23.5h647q33 0 56.5 -24t23.5 -56q0 -35 -23.5 -57.5t-56.5 -22.5h-647q-35 0 -57.5 22.5t-22.5 57.5z " />
<glyph unicode="&#x3e;" horiz-adv-x="741" d="M98 1329q-4 33 17 60q20 27 53 30.5t59 -16.5l412 -318q31 -25 31 -63q0 -18 -7.5 -35.5t-23.5 -28.5l-412 -317q-10 -10 -23.5 -13t-25.5 -3q-39 0 -63 30q-20 27 -16.5 60t30.5 53l330 254l-330 254q-27 20 -31 53z" />
<glyph unicode="?" horiz-adv-x="1404" d="M84 1583v14q0 4 2 28t11 59.5t26.5 79.5t46.5 91q27 45 70 91.5t106.5 83t148.5 60.5t195 24q96 0 183.5 -27t158 -76t122.5 -119.5t83 -158.5q33 -98 33 -198.5t-32 -197t-94.5 -182.5t-150.5 -156q-47 -35 -91 -60.5t-83 -43.5q-39 -20 -62.5 -34.5t-36.5 -27 t-17.5 -24.5t-4.5 -29v-223q0 -37 -25.5 -63.5t-64.5 -26.5t-65.5 26.5t-26.5 63.5v223q0 61 19.5 104.5t51 75t70.5 54t78 43.5q37 18 74 38.5t72 49.5q133 102 182 245.5t2 282.5q-41 123 -140.5 190.5t-234.5 67.5q-252 0 -362 -166q-35 -53 -46.5 -102t-15.5 -68v-14 q-2 -16 8.5 -27.5t26.5 -15.5q10 0 17.5 3t11.5 7q10 6 14 25q4 39 34 62.5t66 19.5q39 -4 62.5 -34t19.5 -67q-10 -92 -82 -149q-61 -49 -139 -49q-14 0 -22 2q-88 10 -144.5 74.5t-54.5 150.5zM399 197q0 43 16.5 79.5t44 64.5t64.5 43t78 15q86 0 144.5 -58t58.5 -144 q0 -84 -60 -144q-55 -59 -143 -59q-41 0 -78 15.5t-64.5 43t-44 64.5t-16.5 80zM537 197q0 -29 18 -47.5t47 -18.5q29 1 47 19q20 20 21 47q0 29 -19.5 48t-48.5 19t-47 -19.5t-18 -47.5z" />
<glyph unicode="@" horiz-adv-x="1740" d="M86 782q0 162 61.5 303.5t168 248t249 168t303.5 61.5q160 0 302.5 -61.5t248 -167t168 -247t62.5 -301.5v-36.5t-7.5 -67.5t-26 -81t-50.5 -79q-74 -80 -197 -80q-129 0 -205 80q-8 8 -10 15q-55 -68 -134 -108t-171 -40q-82 0 -153.5 31t-125 84t-84 124.5t-30.5 153.5 q0 80 30.5 152t84 125t125 84t153.5 31q70 0 131 -23t113 -64q23 39 67 39q35 0 57.5 -22.5t22.5 -56.5v-263v-2v-2v-16v-4q0 -8 1 -23.5t5 -34t12.5 -37t22.5 -32.5q29 -31 88 -31q35 0 52.5 9.5t27.5 19.5q14 16 22.5 37.5t13.5 43t5 39v25.5v2v4q0 129 -49 242t-133 197 t-197 133t-242 49t-242.5 -49t-197.5 -133t-133 -197t-49 -242t49 -242.5t133 -197.5t197.5 -133t242.5 -49q141 0 266.5 59.5t215.5 169.5q23 25 54.5 29t57.5 -19q25 -23 29 -54.5t-18 -57.5q-113 -137 -269.5 -212t-335.5 -75q-162 0 -304 61.5t-248.5 168t-168 249 t-61.5 303.5zM614 782q0 -61 30 -112.5t77 -83.5q6 0 10 -4q49 -25 103 -9q53 20 77 66q25 49 9 102q-20 53 -66 78q-23 10 -29 31.5t4 44.5t32 29t44 -4q90 -43 123 -144q20 -63 4 -135q23 29 35 64.5t12 74.5v2q0 47 -18.5 89t-50 74t-73.5 50.5t-89 18.5q-49 0 -91 -18.5 t-74 -50.5t-50.5 -74t-18.5 -89z" />
<glyph unicode="A" horiz-adv-x="2215" d="M84 92q0 96 58.5 169t148.5 95l493 1370q-59 35 -97 97.5t-38 136.5q0 39 26.5 64.5t63.5 25.5t63.5 -25.5t26.5 -64.5q0 -37 27 -63.5t66 -26.5q37 0 63.5 26.5t26.5 63.5q0 39 26.5 64.5t63.5 25.5t63.5 -25.5t26.5 -64.5q0 -37 26.5 -63.5t63.5 -26.5q39 0 65.5 26.5 t26.5 63.5q0 39 26.5 64.5t63.5 25.5t63.5 -25.5t26.5 -64.5q0 -76 -38.5 -138.5t-102.5 -97.5l510 -1364q0 -4 2 -4q90 -23 148.5 -94.5t58.5 -169.5q0 -37 -25.5 -63.5t-62.5 -26.5q-39 0 -64.5 26.5t-25.5 63.5q0 39 -26.5 65.5t-65.5 26.5q-37 0 -63.5 -26.5 t-26.5 -65.5q0 -37 -27 -63.5t-64 -26.5t-63.5 26.5t-26.5 63.5q0 80 42 144.5t108 97.5l-176 475h-506l-180 -500q49 -37 78.5 -94t29.5 -123q0 -37 -25.5 -63.5t-62.5 -26.5q-39 0 -64.5 26.5t-25.5 63.5q0 39 -26.5 65.5t-65.5 26.5q-37 0 -63.5 -26.5t-26.5 -65.5 q0 -37 -27 -63.5t-63 -26.5q-37 0 -64 26.5t-27 63.5q0 33 -20 57.5t-51 32.5q-12 -4 -21 -4q-4 0 -9 1t-11 1q-31 -6 -50.5 -30.5t-19.5 -57.5q0 -37 -26.5 -63.5t-63.5 -26.5t-63.5 26.5t-26.5 63.5zM475 336q33 -18 62 -43q35 31 77.5 49t94.5 20l483 1344q-49 18 -90 53 q-29 -25 -63.5 -42t-73.5 -23zM1124 989h373l-190 508z" />
<glyph unicode="B" horiz-adv-x="2119" d="M90 94q0 41 27.5 67.5t66.5 26.5h74v969h-72q-39 0 -66.5 26.5t-27.5 65.5t27.5 66.5t66.5 27.5h72v521h-74q-39 0 -66.5 26.5t-27.5 65.5q0 41 27.5 67.5t66.5 26.5h1159q92 0 174 -35t142.5 -96t95.5 -142t35 -173q0 -98 -36.5 -181.5t-102.5 -144.5 q84 -41 154.5 -102.5t120.5 -140.5t79 -171t29 -192q0 -139 -53.5 -261t-144.5 -212t-213 -143.5t-261 -53.5h-1178q-39 0 -66.5 26.5t-27.5 65.5zM442 188h236v969h-236v-969zM442 1343h236v521h-236v-521zM864 188h402q66 27 108.5 87.5t42.5 136.5q0 51 -19.5 95 t-52 76.5t-76.5 51t-93 18.5q-31 0 -53.5 22.5t-22.5 53.5q0 33 22.5 54.5t53.5 21.5q82 0 153.5 -31t124.5 -84t84 -124.5t31 -153.5q-1 -109 -56 -199q74 25 134.5 69t105.5 104t69.5 133t24.5 153q0 100 -37.5 188t-104.5 154.5t-155 104.5t-188 38h-498v-969zM864 1343 h479q53 0 100.5 20.5t83.5 55.5t56.5 83.5t20.5 101.5t-20.5 100t-56.5 83t-83 56.5t-101 20.5h-479v-521z" />
<glyph unicode="C" horiz-adv-x="1918" d="M86 1024q0 256 70.5 462t205.5 349q123 131 292 199.5t364 68.5q10 0 14 -2q4 2 15 2q180 0 335.5 -58t278.5 -171q6 -4 10 -10q51 -51 83 -117t42 -137q6 -37 6 -74q0 -49 -11 -97q-19 -83 -67 -155q-49 -72 -118.5 -118t-155.5 -58q-4 0 -7 -1t-7 -1q-35 0 -60.5 22.5 t-29.5 57.5q-1 8 -1 16q0 28 17 52q22 30 61 36q92 12 150 96q29 42 40 92q6 29 6 59q0 22 -3 44q-16 96 -80 160l-4 4q-96 86 -219 130t-266 44q-10 0 -15 2q-4 -2 -14 -2q-199 0 -356 -84v-1612q78 -41 171 -63.5t199 -22.5q178 0 319.5 58.5t239.5 173.5h2 q8 10 16.5 25.5t12.5 32.5t1 33.5t-17 31.5q-29 26 -61 26q-38 0 -81 -37q-26 -23 -60 -23h-6q-38 2 -63 31q-25 27 -25 60v6q2 37 31 63q90 78 198 82h9q102 0 181 -73q37 -33 56 -75t22 -88q1 -9 1 -17q0 -38 -11 -76q-13 -47 -42 -90q-4 -10 -12 -19 q-127 -152 -307.5 -229.5t-403.5 -77.5q-203 0 -371.5 66.5t-293.5 195.5q-139 141 -210 346t-71 461zM270 1024q0 -211 53.5 -377t153.5 -280v1321q-102 -117 -154.5 -285t-52.5 -379z" />
<glyph unicode="D" horiz-adv-x="2150" d="M90 94q0 39 27.5 66.5t66.5 27.5h109v1676h-109q-39 0 -66.5 27.5t-27.5 66.5t27.5 65.5t66.5 26.5h856q211 0 398.5 -81t326 -219t219 -325.5t80.5 -398.5q0 -141 -36.5 -272t-103 -245t-160 -207t-207 -159.5t-244.5 -103.5t-273 -37h-856q-39 0 -66.5 26.5t-27.5 65.5 zM477 188h236v1676h-236v-1676zM899 188h141q76 0 150 13q74 23 122 86t48 145q0 49 -19.5 93t-52.5 77t-77 52.5t-93 19.5q-31 0 -52.5 21.5t-21.5 54.5q0 31 21.5 52t52.5 21q82 0 153.5 -30.5t125 -84t84 -125t30.5 -151.5q0 -55 -16 -110q174 115 278.5 298t104.5 406 q0 174 -65.5 326.5t-179 266.5t-266.5 179.5t-327 65.5h-141v-1676z" />
<glyph unicode="E" horiz-adv-x="2177" d="M90 1237q0 41 27.5 67.5t66.5 26.5h119v529h-119q-41 0 -67.5 26.5t-26.5 65.5q0 41 26.5 67.5t67.5 26.5h1622q57 0 108.5 -22.5t89.5 -60.5t60.5 -89t22.5 -109q0 -59 -22.5 -109t-60.5 -89t-89 -60.5t-109 -21.5q-39 0 -66.5 26.5t-27.5 65.5t27.5 65.5t66.5 26.5 t67 27.5t28 68.5q0 39 -28 67t-67 28h-895v-529h494q41 0 67.5 -26.5t26.5 -67.5q0 -39 -26.5 -65.5t-67.5 -26.5h-494v-961h895q39 0 67 28t28 67q0 41 -28 67.5t-67 26.5t-66.5 27.5t-27.5 66.5t27.5 65.5t66.5 26.5q57 0 108.5 -21.5t89.5 -60.5t60.5 -90t22.5 -108 q0 -59 -22.5 -109.5t-60.5 -89.5t-89 -60.5t-109 -21.5h-1575q-39 0 -66.5 26.5t-27.5 65.5q0 41 28 67.5t66 26.5h72v961h-119q-39 0 -66.5 26.5t-27.5 65.5zM489 184h236v961h-236v-961zM489 1331h236v529h-236v-529z" />
<glyph unicode="F" horiz-adv-x="2068" d="M90 1260q0 39 25.5 64.5t64.5 25.5h121v516h-117q-37 0 -63.5 26.5t-26.5 63.5t26.5 63.5t63.5 26.5h1534q57 0 106.5 -21.5t86.5 -58.5t58.5 -87t21.5 -105q0 -57 -21.5 -107.5t-58.5 -87.5t-86 -58.5t-107 -21.5q-39 0 -64.5 26.5t-25.5 63.5q0 39 25.5 65.5t64.5 26.5 t65.5 27t26.5 66t-26.5 65.5t-65.5 26.5h-825v-516h481q39 0 65.5 -26t26.5 -64q0 -37 -26.5 -64t-65.5 -27h-481v-831q72 -33 117 -98.5t45 -149.5q0 -39 -27 -65.5t-63 -26.5q-39 0 -65 26.5t-26 65.5q0 29 -17 52.5t-46 33.5h-8q-12 0 -29 4q-35 -2 -59.5 -28.5 t-24.5 -61.5q0 -39 -26.5 -65.5t-65.5 -26.5q-37 0 -63.5 26.5t-26.5 65.5q0 35 -25.5 61.5t-60.5 28.5q-8 -2 -14.5 -3t-14.5 -1h-6q-29 -10 -46 -33.5t-17 -52.5q0 -39 -27 -65.5t-64 -26.5q-39 0 -64.5 26.5t-25.5 65.5q0 82 44 148.5t114 99.5v831h-121q-39 0 -64.5 27 t-25.5 64zM483 354q70 -20 115 -61q49 43 115 61v815h-230v-815zM483 1350h230v516h-230v-516z" />
<glyph unicode="G" horiz-adv-x="2033" d="M88 1016q0 258 70.5 464t210.5 347q125 129 293.5 195.5t373.5 66.5q223 0 404.5 -78t308.5 -231q8 -10 12 -19q29 -43 43 -90q10 -37 10 -74v-19q-4 -46 -23 -88t-56 -75q-80 -74 -187 -74q-53 0 -104 20.5t-96 61.5q-29 25 -31 63v6q0 34 22 60q27 29 65 31h6 q34 0 60 -22q35 -33 72 -36h7q33 0 61 25q22 21 22 45q0 10 -4 20q-12 36 -31 58q-203 231 -561 232q-211 0 -372 -84v-1612q86 -47 180 -68.5t190 -21.5q8 0 15 -2q4 2 12 2h46t44 4v721h-127q-39 0 -65.5 26.5t-26.5 65.5t26.5 65.5t65.5 26.5h831q39 0 66 -26.5t27 -65.5 t-27 -65.5t-66 -26.5h-102v-781q0 -37 -26.5 -64.5t-65.5 -27.5t-65.5 28t-26.5 64v-4q-109 -59 -239 -92t-269 -33h-12h-15q-197 0 -366.5 69t-296.5 200q-139 143 -211 350t-72 463zM272 1016q0 -229 56.5 -391t150.5 -269v1319q-102 -115 -154.5 -280.5t-52.5 -378.5z M1335 160q68 23 127.5 52.5t106.5 70.5v561h-234v-676v-8z" />
<glyph unicode="H" horiz-adv-x="2207" d="M92 92q0 84 44 149.5t116 98.5v1372q-72 31 -116 97.5t-44 150.5q0 37 25.5 63.5t64.5 26.5q37 0 63.5 -26.5t26.5 -63.5q0 -39 27 -65.5t66 -26.5t65.5 26.5t26.5 65.5q0 37 26.5 63.5t63.5 26.5t63.5 -26.5t26.5 -63.5q0 -39 26.5 -65.5t65.5 -26.5t65.5 26.5 t26.5 65.5q0 37 26.5 63.5t63.5 26.5q39 0 64.5 -26.5t25.5 -63.5q0 -84 -44 -150.5t-115 -97.5v-379h911v369q-80 29 -131 98.5t-51 159.5q0 37 26.5 63.5t63.5 26.5t63.5 -26.5t26.5 -63.5q0 -39 26.5 -65.5t65.5 -26.5t65.5 26.5t26.5 65.5q0 37 27 63.5t63 26.5 q39 0 65 -26.5t26 -63.5q0 -90 -51.5 -159.5t-131.5 -98.5v-1352q80 -29 131.5 -98.5t51.5 -159.5q0 -37 -26 -63.5t-65 -26.5q-37 0 -63.5 26.5t-26.5 63.5q0 39 -26.5 65.5t-65.5 26.5t-65.5 -26.5t-26.5 -65.5q0 -37 -26.5 -63.5t-63.5 -26.5t-63.5 26.5t-26.5 63.5 q0 90 51 160t131 98v803h-911v-813q72 -33 115.5 -98.5t43.5 -149.5q0 -37 -25.5 -63.5t-64.5 -26.5q-37 0 -63.5 26.5t-26.5 63.5q0 39 -26.5 65.5t-65.5 26.5t-65.5 -26.5t-26.5 -65.5q0 -37 -26.5 -63.5t-63.5 -26.5t-63.5 26.5t-26.5 63.5q0 39 -27 65.5t-65 26.5 q-39 0 -66 -26.5t-27 -65.5q0 -37 -26.5 -63.5t-63.5 -26.5q-39 0 -64.5 26.5t-25.5 63.5zM432 356q62 -14 115 -61q53 47 115 61v1340q-33 8 -62 23.5t-53 37.5q-25 -23 -53.5 -38t-61.5 -23v-1340z" />
<glyph unicode="I" horiz-adv-x="1089" d="M90 90q0 84 44 150.5t116 99.5v1370q-72 33 -116 98.5t-44 149.5q0 39 25.5 64.5t64.5 25.5q37 0 63.5 -25.5t26.5 -64.5t27 -65.5t65 -26.5q39 0 66 26.5t27 65.5t26.5 64.5t63.5 25.5t63.5 -25.5t26.5 -64.5t26.5 -65.5t65.5 -26.5t65.5 26.5t26.5 65.5t26.5 64.5 t63.5 25.5q39 0 64.5 -25.5t25.5 -64.5q0 -84 -44 -149.5t-115 -98.5v-1370q72 -33 115.5 -99.5t43.5 -150.5q0 -37 -25.5 -63.5t-64.5 -26.5q-37 0 -63.5 26.5t-26.5 63.5q0 39 -26.5 65.5t-65.5 26.5t-65.5 -26.5t-26.5 -65.5q0 -37 -26.5 -63.5t-63.5 -26.5t-63.5 26.5 t-26.5 63.5q0 39 -27 65.5t-66 26.5t-65.5 -26.5t-26.5 -65.5q0 -37 -26.5 -63.5t-63.5 -26.5q-39 0 -64.5 26.5t-25.5 63.5zM430 354q66 -16 115 -61q49 45 114 61v1340q-66 18 -114 61q-49 -43 -115 -61v-1340z" />
<glyph unicode="J" horiz-adv-x="1857" d="M115 410q6 53 32.5 101t71.5 83t99 48q36 9 72 9q17 0 34 -2q53 -6 101 -32.5t83 -71.5q20 -26 20 -58q0 -5 -1 -11q-4 -38 -35 -60q-25 -20 -56 -20q-5 0 -11 1q-38 4 -62 35q-23 31 -62 35q-6 1 -12 1q-32 0 -57 -19q-29 -23 -35 -59q-1 -8 -1 -16q0 -27 15 -50 q6 -6 8 -11q2 -4 28 -29.5t79 -56t134 -55.5t196 -25q72 0 134 6.5t120 16.5v1538q-72 33 -118 99.5t-46 152.5q0 39 26.5 65.5t65.5 26.5t65.5 -26.5t26.5 -65.5t26.5 -66.5t67.5 -27.5q39 0 66 27.5t27 66.5t26.5 65.5t65.5 26.5t65.5 -26.5t26.5 -65.5t26.5 -66.5 t67.5 -27.5q39 0 65.5 27.5t26.5 66.5t26.5 65.5t65.5 26.5t66 -26.5t27 -65.5q0 -86 -46.5 -152.5t-117.5 -99.5v-1038q0 -358 -210 -531.5t-642 -173.5q-135 0 -235.5 30t-171 67.5t-111.5 75.5t-56 57q-6 4 -10 10q-35 45 -49 98q-10 37 -10 74q0 16 2 33zM1192 227 q37 16 66.5 37.5t54.5 46.5q57 59 84.5 147.5t27.5 211.5v1022q-70 18 -116 63q-47 -45 -117 -63v-1465z" />
<glyph unicode="K" horiz-adv-x="2408" d="M92 92q0 84 45 149.5t117 98.5v1368q-72 33 -117 99.5t-45 150.5q0 37 26.5 63.5t63.5 26.5q39 0 65.5 -26.5t26.5 -63.5q0 -39 27 -65.5t66 -26.5t65.5 26.5t26.5 65.5q0 37 26.5 63.5t63.5 26.5q39 0 65.5 -26.5t26.5 -63.5q0 -39 26.5 -65.5t65.5 -26.5t65.5 26.5 t26.5 65.5q0 37 27 63.5t63 26.5q39 0 66 -26.5t27 -63.5q0 -84 -45 -150.5t-117 -99.5v-385l667 696v2q2 0 2.5 1t2.5 1q0 2 1 2t1 3q2 0 2 1t2 1l4 2q0 2 2 2l4 4h4q2 2 4 2q2 2 4 2t4 2h6q0 2 3 2h4q2 0 3 1t3 1h4h4h2h649q37 0 63.5 -26.5t26.5 -63.5q0 -39 -26.5 -65.5 t-63.5 -26.5h-104l-778 -805l579 -830q4 -2 5 -4t5 -4q25 -31 63 -34h9q33 0 57 20q31 25 34 63v10q0 33 -19 58q-22 26 -22 59v7q3 38 32 61q25 21 55 21h12q38 -4 62 -33q38 -43 52 -95q11 -40 10 -80v-25q-4 -52 -30 -100.5t-69 -84.5q-39 -33 -83 -48.5t-91 -15.5 q-111 0 -195 80q-12 8 -24 25l-571 817l-371 -385v-203q72 -33 117 -98.5t45 -149.5q0 -39 -27 -65.5t-66 -26.5q-37 0 -63.5 26.5t-26.5 65.5q0 37 -26.5 64.5t-65.5 27.5t-65.5 -27.5t-26.5 -64.5q0 -39 -26.5 -65.5t-65.5 -26.5q-37 0 -63.5 26.5t-26.5 65.5 q0 37 -26.5 64.5t-65.5 27.5t-66 -27.5t-27 -64.5q0 -39 -26.5 -65.5t-65.5 -26.5q-37 0 -63.5 26.5t-26.5 65.5zM434 356q62 -14 115 -61q53 47 115 61v1336q-66 18 -115 61q-49 -43 -115 -61v-1336zM846 805l1024 1061h-252l-772 -805v-256z" />
<glyph unicode="L" horiz-adv-x="2066" d="M90 90q0 39 26.5 64.5t63.5 25.5h119v1528q-72 33 -116 99.5t-44 150.5q0 37 25.5 63.5t64.5 26.5q37 0 63.5 -26.5t26.5 -63.5q0 -39 27 -65.5t66 -26.5t65.5 26.5t26.5 65.5q0 37 26.5 63.5t63.5 26.5q39 0 65.5 -26.5t26.5 -63.5q0 -39 26.5 -65.5t65.5 -26.5 t65.5 26.5t26.5 65.5q0 37 27 63.5t64 26.5t63.5 -26.5t26.5 -63.5q0 -84 -45 -150.5t-117 -99.5v-1528h825q39 0 65.5 28t26.5 66q0 37 -26.5 65t-65.5 28q-37 0 -63.5 25.5t-26.5 64.5q0 37 26.5 63.5t63.5 26.5q57 0 107.5 -21.5t87.5 -58.5t58.5 -87t21.5 -106 q0 -57 -21.5 -107t-58.5 -87t-87 -58.5t-108 -21.5h-1534q-37 0 -63.5 26.5t-26.5 63.5zM479 180h230v1514q-63 14 -115 59q-45 -41 -115 -61v-1512z" />
<glyph unicode="M" horiz-adv-x="2762" d="M92 88q0 84 44 150.5t116 99.5v1370q-72 33 -116 98.5t-44 149.5q0 39 26.5 64.5t63.5 25.5q39 0 64.5 -25.5t25.5 -64.5t28 -65.5t65 -26.5q39 0 65.5 26.5t26.5 65.5t26.5 64.5t63.5 25.5q39 0 65.5 -25.5t26.5 -64.5t26.5 -65.5t65.5 -26.5q37 0 64.5 26.5t27.5 65.5 t25.5 64.5t64.5 25.5q37 0 64 -25.5t27 -64.5q0 -84 -44.5 -149.5t-115.5 -98.5v-109q274 -162 440 -411q29 -45 53.5 -90t44.5 -92q20 47 44 92t53 90q84 123 195.5 228.5t248.5 182.5v107q-72 33 -117 99.5t-45 150.5q0 39 25.5 64.5t64.5 25.5q37 0 64 -25.5t27 -64.5 t26.5 -65.5t65.5 -26.5t65.5 26.5t26.5 65.5t26.5 64.5t63.5 25.5t63.5 -25.5t26.5 -64.5t26.5 -65.5t65.5 -26.5t65.5 26.5t26.5 65.5t27 64.5t63 25.5q39 0 65 -25.5t26 -64.5q0 -84 -44 -149.5t-116 -98.5v-1370q72 -33 116 -99.5t44 -150.5q0 -37 -26 -63.5t-65 -26.5 q-37 0 -63.5 26.5t-26.5 63.5q0 39 -26.5 65.5t-65.5 26.5t-65.5 -26.5t-26.5 -65.5q0 -37 -26.5 -63.5t-63.5 -26.5t-63.5 26.5t-26.5 63.5q0 39 -26.5 65.5t-65.5 26.5t-65.5 -26.5t-26.5 -65.5q0 -37 -27 -63.5t-64 -26.5q-39 0 -64.5 26.5t-25.5 63.5q0 86 45 151.5 t117 98.5v1048q-215 -150 -332.5 -362.5t-117.5 -454.5q0 -37 -27 -63.5t-64 -26.5q-39 0 -64.5 26.5t-25.5 63.5q0 242 -117.5 454t-330.5 361v-1046q72 -33 116 -99.5t44 -150.5q0 -37 -27 -63.5t-64 -26.5q-39 0 -64.5 26.5t-25.5 63.5q0 39 -27.5 65.5t-64.5 26.5 q-39 0 -65.5 -26.5t-26.5 -65.5q0 -37 -26.5 -63.5t-65.5 -26.5q-37 0 -63.5 26.5t-26.5 63.5q0 39 -27 65.5t-65 26.5q-37 0 -65 -26.5t-28 -65.5q0 -37 -25.5 -63.5t-64.5 -26.5q-37 0 -63.5 26.5t-26.5 63.5zM434 352q68 -16 113 -61q49 45 115 61v1340q-66 18 -115 61 q-45 -43 -113 -61v-1340zM2103 352q64 -14 113 -61q49 45 115 61v1340q-66 18 -115 61q-45 -43 -113 -61v-1340z" />
<glyph unicode="N" horiz-adv-x="2168" d="M90 90q0 82 43 147.5t115 98.5v1534h-70q-37 0 -62.5 26.5t-25.5 63.5t25.5 62.5t62.5 25.5h561q37 0 62.5 -25.5t25.5 -62.5q0 -176 41 -304t110 -226.5t160 -178.5t191 -157q104 -80 206.5 -170t186.5 -211v995q-78 29 -128 96.5t-50 155.5q0 37 25.5 63.5t62.5 26.5 t62.5 -26.5t25.5 -63.5t27 -63.5t65 -26.5q37 0 64 26.5t27 63.5t26.5 63.5t63.5 26.5t62.5 -26.5t25.5 -63.5q0 -88 -51.5 -156.5t-128.5 -95.5v-1585v-33q0 -37 -26 -62.5t-63 -25.5t-63.5 25.5t-26.5 62.5v12v7v16q-4 168 -47 290t-112.5 217t-158.5 171t-183 149 q-104 80 -207 174.5t-187 212.5v-1003q72 -31 116 -96.5t44 -149.5q0 -37 -25.5 -62.5t-62.5 -25.5t-63.5 25.5t-26.5 62.5q0 31 -17.5 54.5t-43.5 31.5h-9q-8 0 -14 1t-14 3q-35 -2 -59.5 -27.5t-24.5 -62.5t-26 -62.5t-62 -25.5q-37 0 -62.5 25.5t-25.5 62.5t-26 62.5 t-60 29.5q-12 -6 -29 -6h-6q-27 -10 -44.5 -32.5t-17.5 -53.5q0 -37 -26.5 -62.5t-63.5 -25.5t-62.5 25.5t-25.5 62.5zM424 350q64 -14 115 -59q47 43 110 59v1520h-225v-1520z" />
<glyph unicode="O" horiz-adv-x="2043" d="M88 1020q0 254 69.5 456.5t204.5 344.5q123 129 288 196.5t358 67.5h16h12q193 0 358.5 -67.5t288.5 -196.5q135 -141 204 -344t69 -457q0 -518 -273 -799q-123 -127 -290.5 -192.5t-370.5 -65.5q-199 0 -367 65.5t-290 192.5q-135 141 -206 342t-71 457zM268 1020 q0 -211 53.5 -374t153.5 -275v1304q-102 -117 -154.5 -282.5t-52.5 -372.5zM655 227q160 -82 367 -82q39 0 76 2.5t71 8.5q41 8 76 31.5t60.5 57.5t40 77t14.5 90q0 55 -18.5 102t-50 83t-73.5 56.5t-92 20.5q-31 0 -52 21.5t-21 52.5t21.5 52t51.5 21q80 0 148.5 -32.5 t121 -88t82 -130t29.5 -158.5q0 -31 -3 -60.5t-13 -58.5q30 22 63 55q221 231 222 672q0 217 -56.5 388t-167.5 288q-201 207 -516 207h-16h-12q-195 0 -353 -82v-1594z" />
<glyph unicode="P" horiz-adv-x="1990" d="M90 907q0 39 26.5 64.5t63.5 25.5h119v873h-119q-37 0 -63.5 26.5t-26.5 63.5t26.5 63.5t63.5 26.5h1114q127 0 240 -48t197 -132t132 -196.5t48 -239.5t-48 -240t-132 -197t-197 -132t-240 -48h-2h-403v-475q72 -33 117 -98.5t45 -149.5q0 -39 -27 -65.5t-63 -26.5 q-37 0 -64 26.5t-27 65.5q0 37 -26.5 64.5t-65.5 27.5t-65.5 -27.5t-26.5 -64.5q0 -39 -26.5 -65.5t-65.5 -26.5q-37 0 -63.5 26.5t-26.5 65.5q0 37 -26.5 64.5t-65.5 27.5t-66 -27.5t-27 -64.5q0 -39 -26.5 -65.5t-63.5 -26.5q-39 0 -64.5 26.5t-25.5 65.5q0 82 44 148.5 t116 99.5v475h-119q-37 0 -63.5 26.5t-26.5 63.5zM479 358q70 -20 115 -61q49 43 115 61v459h-230v-459zM479 997h230v873h-230v-873zM889 997h405q90 0 169 35t138.5 94.5t93.5 138t34 169.5q0 90 -34 168.5t-93.5 138t-138.5 94.5t-169 35h-405v-873z" />
<glyph unicode="Q" horiz-adv-x="2066" d="M84 1024q0 256 69.5 462t206.5 349q111 117 257.5 183.5t316.5 80.5q4 2 11 2h13q8 0 15.5 1t15.5 1h8h19h10h18q195 0 364 -68.5t292 -199.5q137 -143 207.5 -349t70.5 -462q0 -522 -276 -809q-35 -35 -73 -65.5t-79 -57.5q-4 -20 -4 -33q4 -66 51 -112q47 -47 113 -51 q29 -2 55.5 8t44.5 28q29 29 66 29t66 -29q27 -27 27 -63q0 -38 -27 -66q-92 -92 -226 -92h-12q-137 6 -236 105q-82 82 -100 190q-156 -53 -338 -53q-203 0 -372 66.5t-296 195.5q-137 141 -207.5 346t-70.5 463zM266 1024q0 -213 53.5 -378t155.5 -281v1323 q-102 -117 -155.5 -285t-53.5 -379zM659 221q78 -41 171.5 -63.5t199.5 -22.5q78 0 152 12q82 18 137 91t55 170q0 55 -18.5 103t-51 85t-76.5 57.5t-93 20.5q-31 0 -52.5 21.5t-21.5 52.5t21.5 52t52.5 21q80 0 151.5 -32.5t123.5 -88t83 -131t31 -161.5q0 -66 -19 -123 q16 14 32.5 27.5t31.5 29.5q225 231 225 682q0 219 -57.5 393t-169.5 291q-98 104 -230.5 157.5t-292.5 53.5h-6h-22q-199 0 -357 -84v-1614z" />
<glyph unicode="R" horiz-adv-x="2254" d="M90 1956q0 39 26.5 65.5t63.5 26.5h1118h5q125 -2 236.5 -51t193.5 -133t130 -196t48 -238q0 -106 -35 -204t-96.5 -175.5t-146.5 -134t-185 -82.5l340 -582q6 -6 14 -23q18 -35 54 -46q15 -4 29 -4q21 0 42 9q37 20 45 54q5 16 5 31q0 20 -9 40q-10 22 -10 43q0 13 4 27 q10 35 45 51q22 10 43 10q14 0 28 -4q36 -10 52 -45q30 -60 30 -123q0 -43 -14 -86q-35 -109 -137 -159q-29 -16 -60.5 -22.5t-62.5 -6.5q-70 0 -131 32.5t-100 94.5q-4 4 -7 8l-6 8l-391 672h-362v-473q72 -33 117 -99.5t45 -150.5q0 -39 -27 -64.5t-63 -25.5 q-37 0 -64 25.5t-27 64.5t-26.5 65.5t-65.5 26.5t-65.5 -26.5t-26.5 -65.5t-26.5 -64.5t-65.5 -25.5q-37 0 -63.5 25.5t-26.5 64.5t-26.5 65.5t-65.5 26.5t-66 -26.5t-27 -65.5t-26.5 -64.5t-63.5 -25.5q-39 0 -64.5 25.5t-25.5 64.5q0 84 44 149.5t114 98.5v475h-113 q-39 0 -64.5 26.5t-25.5 63.5q0 39 25.5 65.5t64.5 26.5h113v871h-117q-37 0 -63.5 26.5t-26.5 63.5zM479 354q66 -16 115 -61q49 43 115 61v459h-230v-459zM479 995h230v871h-230v-871zM889 995h405q90 0 169 34t138.5 93.5t93.5 138t34 169.5q0 90 -34 169.5t-93.5 139 t-138.5 93.5t-169 34h-405v-871z" />
<glyph unicode="S" horiz-adv-x="2129" d="M112 502q3 53 24.5 104t62.5 92q39 38 89 56q47 18 96 17h5q51 -1 102.5 -21.5t94.5 -59.5q31 -28 31 -69q0 -36 -27 -64q-27 -29 -65 -31h-5q-35 0 -61 27q-27 23 -64 30q-7 1 -14 1q-29 0 -53 -23q-14 -12 -20.5 -32.5t-7.5 -42t3 -40t14 -30.5q2 -4 3.5 -5t3.5 -5 q2 -6 37.5 -46.5t119.5 -87.5t224.5 -84.5t351.5 -37.5q111 0 208 14t183 43v733q-74 14 -165 22.5t-208 8.5h-86q-594 0 -786 252q-85 112 -85 255q0 75 23 158v4q0 2 2 2q4 20 16.5 51t37 68t63.5 76t94 78q260 182 705 182q150 0 263.5 -18.5t198.5 -47t144 -62.5 t100 -64q4 -4 13 -9q2 -2 4 -3t4 -3q96 -76 118 -184q6 -28 5 -55q0 -78 -45 -150q-29 -45 -71 -73t-92 -38q-25 -5 -51 -5q-26 1 -54 5q-54 10 -107 37q-35 19 -45 57q-4 13 -4 27q0 23 12 45q18 36 55 46q13 4 26 3q23 0 46 -12q12 -6 29.5 -12t35 -7t34 5t26.5 25 q17 26 17 51q-1 9 -3 19q-8 36 -45 67q-12 8 -20 12q-20 16 -61.5 43t-112 51.5t-174 43t-246.5 18.5q-104 0 -190.5 -11.5t-155.5 -27.5v-692q113 -18 276 -19h86q633 0 850 -260q101 -119 100 -276q0 -51 -10 -105v-6q-4 -25 -16 -61.5t-38 -80.5t-67 -92.5t-98 -95.5 q-47 -37 -113.5 -76.5t-156.5 -71.5t-207 -52.5t-262 -20.5q-244 0 -410 47t-269.5 107.5t-153.5 117t-62 76.5q-27 37 -40 89q-11 42 -11 84q0 10 1 20zM307 1482q0 -34 9 -72t36 -73q23 -29 64 -59.5t108 -54.5v575q-14 -8 -27.5 -15t-25.5 -16q-78 -51 -108.5 -98 t-34.5 -59q0 -6 -1 -11.5t-3 -11.5q-4 -16 -10.5 -43.5t-6.5 -61.5zM1636 297q10 8 21.5 15t21.5 18q43 35 71 68.5t45 62t25.5 49t8.5 29.5q0 2 1 5t1 7q5 30 5 67q0 18 -1 38q-4 60 -55 122q-23 27 -56.5 53.5t-87.5 51.5v-586z" />
<glyph unicode="T" horiz-adv-x="2228" d="M84 1769q0 57 21.5 107.5t59.5 88.5t88 59.5t107 21.5h1524q17 0 25 -2q49 -8 92 -31.5t74.5 -60.5t50 -84t18.5 -99q0 -57 -21.5 -107t-59.5 -88t-88 -59.5t-107 -21.5q-39 0 -65.5 26.5t-26.5 63.5q0 39 26.5 65.5t65.5 26.5t65.5 28t26.5 66q0 39 -26.5 67t-65.5 28 h-455v-1522q72 -33 118 -99.5t46 -152.5q0 -39 -26.5 -65.5t-65.5 -26.5t-65.5 26.5t-26.5 65.5t-27 66.5t-68 27.5q-39 0 -65.5 -27.5t-26.5 -66.5t-26.5 -65.5t-65.5 -26.5t-65.5 26.5t-26.5 65.5t-26.5 66.5t-67.5 27.5q-39 0 -65.5 -27.5t-26.5 -66.5t-27 -65.5 t-66 -26.5t-65.5 26.5t-26.5 65.5q0 86 46 152.5t118 99.5v1522h-455q-39 0 -65.5 -28t-26.5 -67t27 -66.5t65 -27.5q39 0 66 -26.5t27 -65.5q0 -37 -27 -63.5t-66 -26.5q-57 0 -107 21.5t-88 59.5t-59.5 88t-21.5 107zM997 358q68 -18 117 -61q49 43 117 61v1506h-234 v-1506z" />
<glyph unicode="U" horiz-adv-x="2383" d="M86 1958q0 37 26.5 63.5t63.5 26.5q39 0 64.5 -26.5t25.5 -63.5q0 -39 28 -65.5t66 -26.5q39 0 66 26.5t27 65.5q0 37 26.5 63.5t63.5 26.5q39 0 64.5 -26.5t25.5 -63.5q0 -39 27.5 -65.5t66.5 -26.5q37 0 64.5 26.5t27.5 65.5q0 37 25.5 63.5t64.5 26.5q37 0 63.5 -26.5 t26.5 -63.5q0 -84 -44 -150.5t-115 -99.5v-1495q150 -72 342 -72q164 0 298 51.5t232 151.5q221 227 221 672v684q-80 29 -131 97.5t-51 160.5q0 37 26.5 63.5t63.5 26.5q39 0 64.5 -26.5t25.5 -63.5q0 -39 28 -65.5t66 -26.5q37 0 65 26.5t28 65.5q0 37 26.5 63.5 t63.5 26.5t63.5 -26.5t26.5 -63.5q0 -92 -51.5 -160.5t-130.5 -97.5v-684q0 -514 -273 -797q-123 -129 -291 -194.5t-370 -65.5q-201 0 -368 65.5t-292 194.5q-135 139 -205.5 341t-70.5 456v692q-72 33 -116 99.5t-44 150.5zM428 1016q0 -223 59.5 -392t169.5 -284v1352 q-66 18 -114 61q-49 -43 -115 -61v-676z" />
<glyph unicode="V" horiz-adv-x="2334" d="M82 1962q0 39 26.5 64.5t63.5 25.5t63.5 -25.5t26.5 -64.5t26.5 -65.5t65.5 -26.5t65.5 26.5t26.5 65.5t27 64.5t64 25.5q39 0 64.5 -25.5t25.5 -64.5t26.5 -65.5t65.5 -26.5t65.5 26.5t26.5 65.5t26.5 64.5t63.5 25.5q39 0 64.5 -25.5t25.5 -64.5q0 -74 -35.5 -135.5 t-95.5 -97.5l488 -1160l505 1151q-66 35 -105.5 99.5t-39.5 142.5q0 39 26.5 64.5t63.5 25.5t63.5 -25.5t26.5 -64.5t27 -65.5t65 -26.5q39 0 66 26.5t27 65.5t26.5 64.5t63.5 25.5q39 0 64.5 -25.5t25.5 -64.5q0 -98 -59.5 -171t-151.5 -95l-594 -1346q78 -29 127 -98.5 t49 -157.5q0 -37 -25.5 -63.5t-64.5 -26.5q-37 0 -63.5 26.5t-26.5 63.5q0 39 -26.5 65.5t-65.5 26.5t-65.5 -26.5t-26.5 -65.5q0 -37 -27 -63.5t-64 -26.5t-63.5 26.5t-26.5 63.5q0 39 -26.5 65.5t-65.5 26.5t-65.5 -26.5t-26.5 -65.5q0 -37 -26.5 -63.5t-63.5 -26.5 q-39 0 -64.5 26.5t-25.5 63.5q0 74 34.5 135.5t94.5 98.5l-576 1376q-82 29 -134 97.5t-52 160.5zM461 1712l563 -1347q84 -10 145 -68q35 31 76 49l-565 1346q-82 12 -143 67q-37 -33 -76 -47z" />
<glyph unicode="W" horiz-adv-x="3649" d="M86 1970q0 39 26.5 65.5t67.5 26.5q39 0 65.5 -26.5t26.5 -65.5q0 -37 27 -63.5t63 -26.5q37 0 64 26.5t27 63.5q0 39 26.5 65.5t65.5 26.5q41 0 67.5 -26.5t26.5 -65.5q0 -37 26.5 -63.5t63.5 -26.5t63.5 26.5t26.5 63.5q0 39 26.5 65.5t65.5 26.5t67 -26.5t28 -65.5 q0 -74 -36 -136t-96 -99l484 -1155l348 788l-141 340q-82 29 -134.5 99.5t-52.5 162.5q0 39 27 65.5t65 26.5q39 0 67 -26.5t28 -65.5q0 -37 25.5 -63.5t64.5 -26.5q37 0 62.5 26.5t25.5 63.5q0 39 27.5 65.5t66.5 26.5t66.5 -26.5t27.5 -65.5q0 -37 25.5 -63.5t62.5 -26.5 q39 0 64.5 26.5t25.5 63.5q0 39 28 65.5t67 26.5t65.5 -26.5t26.5 -65.5q0 -74 -35 -136t-94 -99l483 -1155l506 1146q-66 35 -105.5 99.5t-39.5 144.5q0 39 26.5 65.5t65.5 26.5t66.5 -26.5t27.5 -65.5q0 -37 25.5 -63.5t64.5 -26.5q37 0 62.5 26.5t25.5 63.5 q0 39 27.5 65.5t66.5 26.5t67 -26.5t28 -65.5q0 -49 -16.5 -93t-45.5 -80t-68.5 -61.5t-85.5 -35.5l-593 -1346q78 -31 127 -100.5t49 -157.5q0 -39 -27 -66.5t-65 -27.5q-39 0 -67 27.5t-28 66.5q0 37 -25.5 63.5t-64.5 26.5q-37 0 -62.5 -26.5t-25.5 -63.5 q0 -39 -27.5 -66.5t-66.5 -27.5t-66.5 27.5t-27.5 66.5q0 37 -25.5 63.5t-64.5 26.5q-37 0 -62.5 -26.5t-25.5 -63.5q0 -39 -28 -66.5t-67 -27.5t-66.5 27.5t-27.5 66.5q0 74 36 135.5t95 98.5l-336 803l-344 -779q78 -31 128 -100.5t50 -157.5q0 -39 -27.5 -66.5 t-66.5 -27.5t-65.5 27.5t-26.5 66.5q0 37 -26.5 63.5t-63.5 26.5t-63.5 -26.5t-26.5 -63.5q0 -39 -27.5 -66.5t-66.5 -27.5t-66 27.5t-27 66.5q0 37 -26.5 63.5t-63.5 26.5t-63.5 -26.5t-26.5 -63.5q0 -39 -26.5 -66.5t-67.5 -27.5q-39 0 -65.5 27.5t-26.5 66.5 q0 74 35 135.5t94 98.5l-578 1378q-82 29 -134 99.5t-52 162.5zM473 1716l563 -1347q41 -4 78 -21.5t66 -44.5q16 14 34.5 25.5t38.5 19.5l-565 1348q-78 12 -143 67q-27 -27 -72 -47zM1763 1716l566 -1347q41 -4 77.5 -21.5t65.5 -44.5q35 31 72 45l-564 1348 q-82 12 -143 67q-16 -16 -34.5 -26.5t-39.5 -20.5z" />
<glyph unicode="X" horiz-adv-x="2144" d="M92 92q0 98 59.5 171t149.5 95l537 553l-572 795q-78 29 -126 98.5t-48 155.5q0 39 25.5 64.5t64.5 25.5q37 0 63.5 -25.5t26.5 -64.5t27 -65.5t66 -26.5t65.5 26.5t26.5 65.5t26.5 64.5t63.5 25.5t63.5 -25.5t26.5 -64.5t26.5 -65.5t65.5 -26.5t65.5 26.5t26.5 65.5 t26.5 64.5t63.5 25.5q39 0 64.5 -25.5t25.5 -64.5q0 -72 -33.5 -131.5t-88.5 -95.5l323 -449l430 445q-59 35 -94 96t-35 135q0 39 26.5 64.5t63.5 25.5q39 0 64.5 -25.5t25.5 -64.5t27 -65.5t66 -26.5t65.5 26.5t26.5 65.5t26.5 64.5t63.5 25.5q39 0 65.5 -25.5t26.5 -64.5 q0 -92 -54 -163t-141 -97l-546 -563l567 -789q78 -29 127 -98.5t49 -157.5q0 -37 -26.5 -63.5t-63.5 -26.5t-63.5 26.5t-26.5 63.5q0 39 -26.5 65.5t-65.5 26.5t-65.5 -26.5t-26.5 -65.5q0 -37 -27 -63.5t-64 -26.5q-39 0 -64.5 26.5t-25.5 63.5q0 39 -26.5 65.5t-65.5 26.5 t-65.5 -26.5t-26.5 -65.5q0 -37 -26.5 -63.5t-63.5 -26.5q-39 0 -65.5 26.5t-26.5 63.5q0 72 33.5 132.5t89.5 97.5l-318 440l-430 -443q55 -37 88 -96t33 -131q0 -37 -26.5 -63.5t-63.5 -26.5t-63.5 26.5t-26.5 63.5q0 39 -27 65.5t-65 26.5q-39 0 -66 -26.5t-27 -65.5 q0 -37 -26.5 -63.5t-63.5 -26.5q-39 0 -64.5 26.5t-25.5 63.5zM481 1714l975 -1352q80 -12 141 -67q27 27 64 43l-975 1354q-80 12 -139 65q-27 -23 -66 -43z" />
<glyph unicode="Y" horiz-adv-x="2316" d="M84 1954q0 39 26.5 65.5t63.5 26.5q39 0 64.5 -26.5t25.5 -65.5t27.5 -65.5t66.5 -26.5t66 26.5t27 65.5t26.5 65.5t63.5 26.5q39 0 64.5 -26.5t25.5 -65.5t27.5 -65.5t66.5 -26.5q37 0 64.5 26.5t27.5 65.5t25.5 65.5t64.5 26.5q37 0 63.5 -26.5t26.5 -65.5 q0 -74 -35.5 -135.5t-95.5 -98.5l494 -1177l487 1169q-70 35 -111.5 99.5t-41.5 146.5q0 37 26.5 63.5t63.5 26.5q39 0 64.5 -26.5t25.5 -63.5q0 -39 27.5 -65.5t66.5 -26.5q37 0 64.5 26.5t27.5 65.5q0 37 27 63.5t63 26.5q37 0 64 -26.5t27 -63.5q0 -98 -58.5 -171 t-146.5 -95l-946 -2259q-31 -84 -101.5 -131t-157.5 -47q-49 0 -90 14q-53 18 -94 55t-64.5 84t-27.5 100q-1 10 -1 20q0 44 15 87q12 37 46 53q19 10 38 10q16 0 31 -6q35 -12 52 -46q11 -20 11 -39q0 -15 -6 -29q-5 -15 -5 -30q0 -21 10 -41q18 -34 53 -46q16 -5 31 -5 q21 0 42 9q35 16 48 51q0 2 1 2t1 2v2l139 330l-791 1862q-82 29 -134 98.5t-52 161.5zM465 1702l694 -1636l105 249q-8 8 -15 25l-563 1343q-88 12 -145 68q-35 -31 -76 -49z" />
<glyph unicode="Z" horiz-adv-x="2177" d="M102 1763q0 57 22.5 109.5t60.5 90.5t90.5 60.5t111.5 22.5h1585h4q33 0 58 -16q33 -23 39 -61q1 -8 1 -16q0 -29 -18 -55l-557 -794h164q33 0 54.5 -22.5t21.5 -55.5q0 -31 -21.5 -53.5t-54.5 -22.5h-272l-537 -764h942q39 0 66.5 27t27.5 68t-27.5 68.5t-66.5 27.5 q-41 0 -67.5 26.5t-26.5 65.5q0 41 26.5 67.5t67.5 26.5q57 0 109.5 -22.5t90.5 -60.5t60.5 -90t22.5 -109q0 -59 -22.5 -110.5t-60.5 -89.5t-90.5 -60.5t-109.5 -22.5h-1587q-31 0 -53 16q-6 4 -15 9q-31 23 -38 61q-2 9 -2 17q0 28 18 53l561 796h-164q-33 0 -54.5 22.5 t-21.5 53.5q0 33 21.5 55.5t54.5 22.5h270l531 754h-930q-41 0 -68.5 -28t-27.5 -67q0 -41 27.5 -68.5t68.5 -27.5q39 0 65.5 -26.5t26.5 -67.5q0 -39 -26.5 -65.5t-65.5 -26.5q-59 0 -111.5 22.5t-90.5 60.5t-60.5 89t-22.5 110zM371 186h254l1175 1672h-254z" />
<glyph unicode="[" horiz-adv-x="509" d="M92 -72v2186q0 55 20.5 103t56.5 84t84 56.5t103 20.5q35 0 57.5 -22.5t22.5 -57.5q0 -33 -22.5 -56.5t-57.5 -23.5q-43 0 -73.5 -30.5t-30.5 -73.5v-2196v-10q4 -41 33.5 -67.5t70.5 -26.5q33 0 56.5 -23.5t23.5 -56.5q0 -35 -23.5 -57.5t-56.5 -22.5q-55 0 -103 20.5 t-84 56.5t-56.5 84t-20.5 103v10z" />
<glyph unicode="\" horiz-adv-x="1269" d="M76 2128q0 39 26.5 65.5t63.5 26.5q39 0 65.5 -26.5t26.5 -65.5t26.5 -65.5t65.5 -26.5t66.5 26.5t27.5 65.5t27 65.5t64 26.5q39 0 65.5 -26.5t26.5 -65.5q0 -86 -47.5 -154.5t-120.5 -99.5l518 -1681q45 -10 85 -35t69.5 -61t46 -80t16.5 -93q0 -39 -26.5 -65.5 t-65.5 -26.5t-64.5 26.5t-25.5 65.5t-28 65.5t-66 26.5q-39 0 -66 -26.5t-27 -65.5t-26.5 -65.5t-65.5 -26.5q-37 0 -63.5 26.5t-26.5 65.5q0 80 42 145.5t110 100.5l-525 1696q-86 27 -140 98.5t-54 163.5z" />
<glyph unicode="]" horiz-adv-x="507" d="M74 -266q0 33 22.5 56.5t57.5 23.5q43 0 73.5 30.5t30.5 73.5v2196v10q-4 41 -33.5 67.5t-70.5 26.5q-33 0 -56.5 23.5t-23.5 56.5q0 35 23.5 57.5t56.5 22.5q55 0 103 -20.5t84 -56.5t56.5 -84t20.5 -103v-11v-2185q0 -55 -20.5 -103t-56.5 -84t-84 -56.5t-103 -20.5 q-35 0 -57.5 22.5t-22.5 57.5z" />
<glyph unicode="^" horiz-adv-x="794" d="M82 1722q0 29 18 47l244 259q20 20 49 20t49 -20l244 -259q20 -20 19.5 -47.5t-21.5 -48.5q-23 -20 -50.5 -19t-45.5 21l-195 205l-194 -205q-18 -20 -47 -21t-50 19q-20 18 -20 49z" />
<glyph unicode="_" horiz-adv-x="1630" d="M92 -78q0 33 22.5 56.5t57.5 23.5h1286q33 0 56.5 -23.5t23.5 -56.5q0 -35 -23.5 -57.5t-56.5 -22.5h-1286q-35 0 -57.5 22.5t-22.5 57.5z" />
<glyph unicode="a" horiz-adv-x="2215" d="M84 92q0 96 58.5 169t148.5 95l493 1370q-59 35 -97 97.5t-38 136.5q0 39 26.5 64.5t63.5 25.5t63.5 -25.5t26.5 -64.5q0 -37 27 -63.5t66 -26.5q37 0 63.5 26.5t26.5 63.5q0 39 26.5 64.5t63.5 25.5t63.5 -25.5t26.5 -64.5q0 -37 26.5 -63.5t63.5 -26.5q39 0 65.5 26.5 t26.5 63.5q0 39 26.5 64.5t63.5 25.5t63.5 -25.5t26.5 -64.5q0 -76 -38.5 -138.5t-102.5 -97.5l510 -1364q0 -4 2 -4q90 -23 148.5 -94.5t58.5 -169.5q0 -37 -25.5 -63.5t-62.5 -26.5q-39 0 -64.5 26.5t-25.5 63.5q0 39 -26.5 65.5t-65.5 26.5q-37 0 -63.5 -26.5 t-26.5 -65.5q0 -37 -27 -63.5t-64 -26.5t-63.5 26.5t-26.5 63.5q0 80 42 144.5t108 97.5l-176 475h-506l-180 -500q49 -37 78.5 -94t29.5 -123q0 -37 -25.5 -63.5t-62.5 -26.5q-39 0 -64.5 26.5t-25.5 63.5q0 39 -26.5 65.5t-65.5 26.5q-37 0 -63.5 -26.5t-26.5 -65.5 q0 -37 -27 -63.5t-63 -26.5q-37 0 -64 26.5t-27 63.5q0 33 -20 57.5t-51 32.5q-12 -4 -21 -4q-4 0 -9 1t-11 1q-31 -6 -50.5 -30.5t-19.5 -57.5q0 -37 -26.5 -63.5t-63.5 -26.5t-63.5 26.5t-26.5 63.5zM475 336q33 -18 62 -43q35 31 77.5 49t94.5 20l483 1344q-49 18 -90 53 q-29 -25 -63.5 -42t-73.5 -23zM1124 989h373l-190 508z" />
<glyph unicode="b" horiz-adv-x="2119" d="M90 94q0 41 27.5 67.5t66.5 26.5h74v969h-72q-39 0 -66.5 26.5t-27.5 65.5t27.5 66.5t66.5 27.5h72v521h-74q-39 0 -66.5 26.5t-27.5 65.5q0 41 27.5 67.5t66.5 26.5h1159q92 0 174 -35t142.5 -96t95.5 -142t35 -173q0 -98 -36.5 -181.5t-102.5 -144.5 q84 -41 154.5 -102.5t120.5 -140.5t79 -171t29 -192q0 -139 -53.5 -261t-144.5 -212t-213 -143.5t-261 -53.5h-1178q-39 0 -66.5 26.5t-27.5 65.5zM442 188h236v969h-236v-969zM442 1343h236v521h-236v-521zM864 188h402q66 27 108.5 87.5t42.5 136.5q0 51 -19.5 95 t-52 76.5t-76.5 51t-93 18.5q-31 0 -53.5 22.5t-22.5 53.5q0 33 22.5 54.5t53.5 21.5q82 0 153.5 -31t124.5 -84t84 -124.5t31 -153.5q-1 -109 -56 -199q74 25 134.5 69t105.5 104t69.5 133t24.5 153q0 100 -37.5 188t-104.5 154.5t-155 104.5t-188 38h-498v-969zM864 1343 h479q53 0 100.5 20.5t83.5 55.5t56.5 83.5t20.5 101.5t-20.5 100t-56.5 83t-83 56.5t-101 20.5h-479v-521z" />
<glyph unicode="c" horiz-adv-x="1918" d="M86 1024q0 256 70.5 462t205.5 349q123 131 292 199.5t364 68.5q10 0 14 -2q4 2 15 2q180 0 335.5 -58t278.5 -171q6 -4 10 -10q51 -51 83 -117t42 -137q6 -37 6 -74q0 -49 -11 -97q-19 -83 -67 -155q-49 -72 -118.5 -118t-155.5 -58q-4 0 -7 -1t-7 -1q-35 0 -60.5 22.5 t-29.5 57.5q-1 8 -1 16q0 28 17 52q22 30 61 36q92 12 150 96q29 42 40 92q6 29 6 59q0 22 -3 44q-16 96 -80 160l-4 4q-96 86 -219 130t-266 44q-10 0 -15 2q-4 -2 -14 -2q-199 0 -356 -84v-1612q78 -41 171 -63.5t199 -22.5q178 0 319.5 58.5t239.5 173.5h2 q8 10 16.5 25.5t12.5 32.5t1 33.5t-17 31.5q-29 26 -61 26q-38 0 -81 -37q-26 -23 -60 -23h-6q-38 2 -63 31q-25 27 -25 60v6q2 37 31 63q90 78 198 82h9q102 0 181 -73q37 -33 56 -75t22 -88q1 -9 1 -17q0 -38 -11 -76q-13 -47 -42 -90q-4 -10 -12 -19 q-127 -152 -307.5 -229.5t-403.5 -77.5q-203 0 -371.5 66.5t-293.5 195.5q-139 141 -210 346t-71 461zM270 1024q0 -211 53.5 -377t153.5 -280v1321q-102 -117 -154.5 -285t-52.5 -379z" />
<glyph unicode="d" horiz-adv-x="2150" d="M90 94q0 39 27.5 66.5t66.5 27.5h109v1676h-109q-39 0 -66.5 27.5t-27.5 66.5t27.5 65.5t66.5 26.5h856q211 0 398.5 -81t326 -219t219 -325.5t80.5 -398.5q0 -141 -36.5 -272t-103 -245t-160 -207t-207 -159.5t-244.5 -103.5t-273 -37h-856q-39 0 -66.5 26.5t-27.5 65.5 zM477 188h236v1676h-236v-1676zM899 188h141q76 0 150 13q74 23 122 86t48 145q0 49 -19.5 93t-52.5 77t-77 52.5t-93 19.5q-31 0 -52.5 21.5t-21.5 54.5q0 31 21.5 52t52.5 21q82 0 153.5 -30.5t125 -84t84 -125t30.5 -151.5q0 -55 -16 -110q174 115 278.5 298t104.5 406 q0 174 -65.5 326.5t-179 266.5t-266.5 179.5t-327 65.5h-141v-1676z" />
<glyph unicode="e" horiz-adv-x="2177" d="M90 1237q0 41 27.5 67.5t66.5 26.5h119v529h-119q-41 0 -67.5 26.5t-26.5 65.5q0 41 26.5 67.5t67.5 26.5h1622q57 0 108.5 -22.5t89.5 -60.5t60.5 -89t22.5 -109q0 -59 -22.5 -109t-60.5 -89t-89 -60.5t-109 -21.5q-39 0 -66.5 26.5t-27.5 65.5t27.5 65.5t66.5 26.5 t67 27.5t28 68.5q0 39 -28 67t-67 28h-895v-529h494q41 0 67.5 -26.5t26.5 -67.5q0 -39 -26.5 -65.5t-67.5 -26.5h-494v-961h895q39 0 67 28t28 67q0 41 -28 67.5t-67 26.5t-66.5 27.5t-27.5 66.5t27.5 65.5t66.5 26.5q57 0 108.5 -21.5t89.5 -60.5t60.5 -90t22.5 -108 q0 -59 -22.5 -109.5t-60.5 -89.5t-89 -60.5t-109 -21.5h-1575q-39 0 -66.5 26.5t-27.5 65.5q0 41 28 67.5t66 26.5h72v961h-119q-39 0 -66.5 26.5t-27.5 65.5zM489 184h236v961h-236v-961zM489 1331h236v529h-236v-529z" />
<glyph unicode="f" horiz-adv-x="2068" d="M90 1260q0 39 25.5 64.5t64.5 25.5h121v516h-117q-37 0 -63.5 26.5t-26.5 63.5t26.5 63.5t63.5 26.5h1534q57 0 106.5 -21.5t86.5 -58.5t58.5 -87t21.5 -105q0 -57 -21.5 -107.5t-58.5 -87.5t-86 -58.5t-107 -21.5q-39 0 -64.5 26.5t-25.5 63.5q0 39 25.5 65.5t64.5 26.5 t65.5 27t26.5 66t-26.5 65.5t-65.5 26.5h-825v-516h481q39 0 65.5 -26t26.5 -64q0 -37 -26.5 -64t-65.5 -27h-481v-831q72 -33 117 -98.5t45 -149.5q0 -39 -27 -65.5t-63 -26.5q-39 0 -65 26.5t-26 65.5q0 29 -17 52.5t-46 33.5h-8q-12 0 -29 4q-35 -2 -59.5 -28.5 t-24.5 -61.5q0 -39 -26.5 -65.5t-65.5 -26.5q-37 0 -63.5 26.5t-26.5 65.5q0 35 -25.5 61.5t-60.5 28.5q-8 -2 -14.5 -3t-14.5 -1h-6q-29 -10 -46 -33.5t-17 -52.5q0 -39 -27 -65.5t-64 -26.5q-39 0 -64.5 26.5t-25.5 65.5q0 82 44 148.5t114 99.5v831h-121q-39 0 -64.5 27 t-25.5 64zM483 354q70 -20 115 -61q49 43 115 61v815h-230v-815zM483 1350h230v516h-230v-516z" />
<glyph unicode="g" horiz-adv-x="2033" d="M88 1016q0 258 70.5 464t210.5 347q125 129 293.5 195.5t373.5 66.5q223 0 404.5 -78t308.5 -231q8 -10 12 -19q29 -43 43 -90q10 -37 10 -74v-19q-4 -46 -23 -88t-56 -75q-80 -74 -187 -74q-53 0 -104 20.5t-96 61.5q-29 25 -31 63v6q0 34 22 60q27 29 65 31h6 q34 0 60 -22q35 -33 72 -36h7q33 0 61 25q22 21 22 45q0 10 -4 20q-12 36 -31 58q-203 231 -561 232q-211 0 -372 -84v-1612q86 -47 180 -68.5t190 -21.5q8 0 15 -2q4 2 12 2h46t44 4v721h-127q-39 0 -65.5 26.5t-26.5 65.5t26.5 65.5t65.5 26.5h831q39 0 66 -26.5t27 -65.5 t-27 -65.5t-66 -26.5h-102v-781q0 -37 -26.5 -64.5t-65.5 -27.5t-65.5 28t-26.5 64v-4q-109 -59 -239 -92t-269 -33h-12h-15q-197 0 -366.5 69t-296.5 200q-139 143 -211 350t-72 463zM272 1016q0 -229 56.5 -391t150.5 -269v1319q-102 -115 -154.5 -280.5t-52.5 -378.5z M1335 160q68 23 127.5 52.5t106.5 70.5v561h-234v-676v-8z" />
<glyph unicode="h" horiz-adv-x="2207" d="M92 92q0 84 44 149.5t116 98.5v1372q-72 31 -116 97.5t-44 150.5q0 37 25.5 63.5t64.5 26.5q37 0 63.5 -26.5t26.5 -63.5q0 -39 27 -65.5t66 -26.5t65.5 26.5t26.5 65.5q0 37 26.5 63.5t63.5 26.5t63.5 -26.5t26.5 -63.5q0 -39 26.5 -65.5t65.5 -26.5t65.5 26.5 t26.5 65.5q0 37 26.5 63.5t63.5 26.5q39 0 64.5 -26.5t25.5 -63.5q0 -84 -44 -150.5t-115 -97.5v-379h911v369q-80 29 -131 98.5t-51 159.5q0 37 26.5 63.5t63.5 26.5t63.5 -26.5t26.5 -63.5q0 -39 26.5 -65.5t65.5 -26.5t65.5 26.5t26.5 65.5q0 37 27 63.5t63 26.5 q39 0 65 -26.5t26 -63.5q0 -90 -51.5 -159.5t-131.5 -98.5v-1352q80 -29 131.5 -98.5t51.5 -159.5q0 -37 -26 -63.5t-65 -26.5q-37 0 -63.5 26.5t-26.5 63.5q0 39 -26.5 65.5t-65.5 26.5t-65.5 -26.5t-26.5 -65.5q0 -37 -26.5 -63.5t-63.5 -26.5t-63.5 26.5t-26.5 63.5 q0 90 51 160t131 98v803h-911v-813q72 -33 115.5 -98.5t43.5 -149.5q0 -37 -25.5 -63.5t-64.5 -26.5q-37 0 -63.5 26.5t-26.5 63.5q0 39 -26.5 65.5t-65.5 26.5t-65.5 -26.5t-26.5 -65.5q0 -37 -26.5 -63.5t-63.5 -26.5t-63.5 26.5t-26.5 63.5q0 39 -27 65.5t-65 26.5 q-39 0 -66 -26.5t-27 -65.5q0 -37 -26.5 -63.5t-63.5 -26.5q-39 0 -64.5 26.5t-25.5 63.5zM432 356q62 -14 115 -61q53 47 115 61v1340q-33 8 -62 23.5t-53 37.5q-25 -23 -53.5 -38t-61.5 -23v-1340z" />
<glyph unicode="i" horiz-adv-x="1089" d="M90 90q0 84 44 150.5t116 99.5v1370q-72 33 -116 98.5t-44 149.5q0 39 25.5 64.5t64.5 25.5q37 0 63.5 -25.5t26.5 -64.5t27 -65.5t65 -26.5q39 0 66 26.5t27 65.5t26.5 64.5t63.5 25.5t63.5 -25.5t26.5 -64.5t26.5 -65.5t65.5 -26.5t65.5 26.5t26.5 65.5t26.5 64.5 t63.5 25.5q39 0 64.5 -25.5t25.5 -64.5q0 -84 -44 -149.5t-115 -98.5v-1370q72 -33 115.5 -99.5t43.5 -150.5q0 -37 -25.5 -63.5t-64.5 -26.5q-37 0 -63.5 26.5t-26.5 63.5q0 39 -26.5 65.5t-65.5 26.5t-65.5 -26.5t-26.5 -65.5q0 -37 -26.5 -63.5t-63.5 -26.5t-63.5 26.5 t-26.5 63.5q0 39 -27 65.5t-66 26.5t-65.5 -26.5t-26.5 -65.5q0 -37 -26.5 -63.5t-63.5 -26.5q-39 0 -64.5 26.5t-25.5 63.5zM430 354q66 -16 115 -61q49 45 114 61v1340q-66 18 -114 61q-49 -43 -115 -61v-1340z" />
<glyph unicode="j" horiz-adv-x="1857" d="M115 410q6 53 32.5 101t71.5 83t99 48q36 9 72 9q17 0 34 -2q53 -6 101 -32.5t83 -71.5q20 -26 20 -58q0 -5 -1 -11q-4 -38 -35 -60q-25 -20 -56 -20q-5 0 -11 1q-38 4 -62 35q-23 31 -62 35q-6 1 -12 1q-32 0 -57 -19q-29 -23 -35 -59q-1 -8 -1 -16q0 -27 15 -50 q6 -6 8 -11q2 -4 28 -29.5t79 -56t134 -55.5t196 -25q72 0 134 6.5t120 16.5v1538q-72 33 -118 99.5t-46 152.5q0 39 26.5 65.5t65.5 26.5t65.5 -26.5t26.5 -65.5t26.5 -66.5t67.5 -27.5q39 0 66 27.5t27 66.5t26.5 65.5t65.5 26.5t65.5 -26.5t26.5 -65.5t26.5 -66.5 t67.5 -27.5q39 0 65.5 27.5t26.5 66.5t26.5 65.5t65.5 26.5t66 -26.5t27 -65.5q0 -86 -46.5 -152.5t-117.5 -99.5v-1038q0 -358 -210 -531.5t-642 -173.5q-135 0 -235.5 30t-171 67.5t-111.5 75.5t-56 57q-6 4 -10 10q-35 45 -49 98q-10 37 -10 74q0 16 2 33zM1192 227 q37 16 66.5 37.5t54.5 46.5q57 59 84.5 147.5t27.5 211.5v1022q-70 18 -116 63q-47 -45 -117 -63v-1465z" />
<glyph unicode="k" horiz-adv-x="2408" d="M92 92q0 84 45 149.5t117 98.5v1368q-72 33 -117 99.5t-45 150.5q0 37 26.5 63.5t63.5 26.5q39 0 65.5 -26.5t26.5 -63.5q0 -39 27 -65.5t66 -26.5t65.5 26.5t26.5 65.5q0 37 26.5 63.5t63.5 26.5q39 0 65.5 -26.5t26.5 -63.5q0 -39 26.5 -65.5t65.5 -26.5t65.5 26.5 t26.5 65.5q0 37 27 63.5t63 26.5q39 0 66 -26.5t27 -63.5q0 -84 -45 -150.5t-117 -99.5v-385l667 696v2q2 0 2.5 1t2.5 1q0 2 1 2t1 3q2 0 2 1t2 1l4 2q0 2 2 2l4 4h4q2 2 4 2q2 2 4 2t4 2h6q0 2 3 2h4q2 0 3 1t3 1h4h4h2h649q37 0 63.5 -26.5t26.5 -63.5q0 -39 -26.5 -65.5 t-63.5 -26.5h-104l-778 -805l579 -830q4 -2 5 -4t5 -4q25 -31 63 -34h9q33 0 57 20q31 25 34 63v10q0 33 -19 58q-22 26 -22 59v7q3 38 32 61q25 21 55 21h12q38 -4 62 -33q38 -43 52 -95q11 -40 10 -80v-25q-4 -52 -30 -100.5t-69 -84.5q-39 -33 -83 -48.5t-91 -15.5 q-111 0 -195 80q-12 8 -24 25l-571 817l-371 -385v-203q72 -33 117 -98.5t45 -149.5q0 -39 -27 -65.5t-66 -26.5q-37 0 -63.5 26.5t-26.5 65.5q0 37 -26.5 64.5t-65.5 27.5t-65.5 -27.5t-26.5 -64.5q0 -39 -26.5 -65.5t-65.5 -26.5q-37 0 -63.5 26.5t-26.5 65.5 q0 37 -26.5 64.5t-65.5 27.5t-66 -27.5t-27 -64.5q0 -39 -26.5 -65.5t-65.5 -26.5q-37 0 -63.5 26.5t-26.5 65.5zM434 356q62 -14 115 -61q53 47 115 61v1336q-66 18 -115 61q-49 -43 -115 -61v-1336zM846 805l1024 1061h-252l-772 -805v-256z" />
<glyph unicode="l" horiz-adv-x="2066" d="M90 90q0 39 26.5 64.5t63.5 25.5h119v1528q-72 33 -116 99.5t-44 150.5q0 37 25.5 63.5t64.5 26.5q37 0 63.5 -26.5t26.5 -63.5q0 -39 27 -65.5t66 -26.5t65.5 26.5t26.5 65.5q0 37 26.5 63.5t63.5 26.5q39 0 65.5 -26.5t26.5 -63.5q0 -39 26.5 -65.5t65.5 -26.5 t65.5 26.5t26.5 65.5q0 37 27 63.5t64 26.5t63.5 -26.5t26.5 -63.5q0 -84 -45 -150.5t-117 -99.5v-1528h825q39 0 65.5 28t26.5 66q0 37 -26.5 65t-65.5 28q-37 0 -63.5 25.5t-26.5 64.5q0 37 26.5 63.5t63.5 26.5q57 0 107.5 -21.5t87.5 -58.5t58.5 -87t21.5 -106 q0 -57 -21.5 -107t-58.5 -87t-87 -58.5t-108 -21.5h-1534q-37 0 -63.5 26.5t-26.5 63.5zM479 180h230v1514q-63 14 -115 59q-45 -41 -115 -61v-1512z" />
<glyph unicode="m" horiz-adv-x="2762" d="M92 88q0 84 44 150.5t116 99.5v1370q-72 33 -116 98.5t-44 149.5q0 39 26.5 64.5t63.5 25.5q39 0 64.5 -25.5t25.5 -64.5t28 -65.5t65 -26.5q39 0 65.5 26.5t26.5 65.5t26.5 64.5t63.5 25.5q39 0 65.5 -25.5t26.5 -64.5t26.5 -65.5t65.5 -26.5q37 0 64.5 26.5t27.5 65.5 t25.5 64.5t64.5 25.5q37 0 64 -25.5t27 -64.5q0 -84 -44.5 -149.5t-115.5 -98.5v-109q274 -162 440 -411q29 -45 53.5 -90t44.5 -92q20 47 44 92t53 90q84 123 195.5 228.5t248.5 182.5v107q-72 33 -117 99.5t-45 150.5q0 39 25.5 64.5t64.5 25.5q37 0 64 -25.5t27 -64.5 t26.5 -65.5t65.5 -26.5t65.5 26.5t26.5 65.5t26.5 64.5t63.5 25.5t63.5 -25.5t26.5 -64.5t26.5 -65.5t65.5 -26.5t65.5 26.5t26.5 65.5t27 64.5t63 25.5q39 0 65 -25.5t26 -64.5q0 -84 -44 -149.5t-116 -98.5v-1370q72 -33 116 -99.5t44 -150.5q0 -37 -26 -63.5t-65 -26.5 q-37 0 -63.5 26.5t-26.5 63.5q0 39 -26.5 65.5t-65.5 26.5t-65.5 -26.5t-26.5 -65.5q0 -37 -26.5 -63.5t-63.5 -26.5t-63.5 26.5t-26.5 63.5q0 39 -26.5 65.5t-65.5 26.5t-65.5 -26.5t-26.5 -65.5q0 -37 -27 -63.5t-64 -26.5q-39 0 -64.5 26.5t-25.5 63.5q0 86 45 151.5 t117 98.5v1048q-215 -150 -332.5 -362.5t-117.5 -454.5q0 -37 -27 -63.5t-64 -26.5q-39 0 -64.5 26.5t-25.5 63.5q0 242 -117.5 454t-330.5 361v-1046q72 -33 116 -99.5t44 -150.5q0 -37 -27 -63.5t-64 -26.5q-39 0 -64.5 26.5t-25.5 63.5q0 39 -27.5 65.5t-64.5 26.5 q-39 0 -65.5 -26.5t-26.5 -65.5q0 -37 -26.5 -63.5t-65.5 -26.5q-37 0 -63.5 26.5t-26.5 63.5q0 39 -27 65.5t-65 26.5q-37 0 -65 -26.5t-28 -65.5q0 -37 -25.5 -63.5t-64.5 -26.5q-37 0 -63.5 26.5t-26.5 63.5zM434 352q68 -16 113 -61q49 45 115 61v1340q-66 18 -115 61 q-45 -43 -113 -61v-1340zM2103 352q64 -14 113 -61q49 45 115 61v1340q-66 18 -115 61q-45 -43 -113 -61v-1340z" />
<glyph unicode="n" horiz-adv-x="2168" d="M90 90q0 82 43 147.5t115 98.5v1534h-70q-37 0 -62.5 26.5t-25.5 63.5t25.5 62.5t62.5 25.5h561q37 0 62.5 -25.5t25.5 -62.5q0 -176 41 -304t110 -226.5t160 -178.5t191 -157q104 -80 206.5 -170t186.5 -211v995q-78 29 -128 96.5t-50 155.5q0 37 25.5 63.5t62.5 26.5 t62.5 -26.5t25.5 -63.5t27 -63.5t65 -26.5q37 0 64 26.5t27 63.5t26.5 63.5t63.5 26.5t62.5 -26.5t25.5 -63.5q0 -88 -51.5 -156.5t-128.5 -95.5v-1585v-33q0 -37 -26 -62.5t-63 -25.5t-63.5 25.5t-26.5 62.5v12v7v16q-4 168 -47 290t-112.5 217t-158.5 171t-183 149 q-104 80 -207 174.5t-187 212.5v-1003q72 -31 116 -96.5t44 -149.5q0 -37 -25.5 -62.5t-62.5 -25.5t-63.5 25.5t-26.5 62.5q0 31 -17.5 54.5t-43.5 31.5h-9q-8 0 -14 1t-14 3q-35 -2 -59.5 -27.5t-24.5 -62.5t-26 -62.5t-62 -25.5q-37 0 -62.5 25.5t-25.5 62.5t-26 62.5 t-60 29.5q-12 -6 -29 -6h-6q-27 -10 -44.5 -32.5t-17.5 -53.5q0 -37 -26.5 -62.5t-63.5 -25.5t-62.5 25.5t-25.5 62.5zM424 350q64 -14 115 -59q47 43 110 59v1520h-225v-1520z" />
<glyph unicode="o" horiz-adv-x="2043" d="M88 1020q0 254 69.5 456.5t204.5 344.5q123 129 288 196.5t358 67.5h16h12q193 0 358.5 -67.5t288.5 -196.5q135 -141 204 -344t69 -457q0 -518 -273 -799q-123 -127 -290.5 -192.5t-370.5 -65.5q-199 0 -367 65.5t-290 192.5q-135 141 -206 342t-71 457zM268 1020 q0 -211 53.5 -374t153.5 -275v1304q-102 -117 -154.5 -282.5t-52.5 -372.5zM655 227q160 -82 367 -82q39 0 76 2.5t71 8.5q41 8 76 31.5t60.5 57.5t40 77t14.5 90q0 55 -18.5 102t-50 83t-73.5 56.5t-92 20.5q-31 0 -52 21.5t-21 52.5t21.5 52t51.5 21q80 0 148.5 -32.5 t121 -88t82 -130t29.5 -158.5q0 -31 -3 -60.5t-13 -58.5q30 22 63 55q221 231 222 672q0 217 -56.5 388t-167.5 288q-201 207 -516 207h-16h-12q-195 0 -353 -82v-1594z" />
<glyph unicode="p" horiz-adv-x="1990" d="M90 907q0 39 26.5 64.5t63.5 25.5h119v873h-119q-37 0 -63.5 26.5t-26.5 63.5t26.5 63.5t63.5 26.5h1114q127 0 240 -48t197 -132t132 -196.5t48 -239.5t-48 -240t-132 -197t-197 -132t-240 -48h-2h-403v-475q72 -33 117 -98.5t45 -149.5q0 -39 -27 -65.5t-63 -26.5 q-37 0 -64 26.5t-27 65.5q0 37 -26.5 64.5t-65.5 27.5t-65.5 -27.5t-26.5 -64.5q0 -39 -26.5 -65.5t-65.5 -26.5q-37 0 -63.5 26.5t-26.5 65.5q0 37 -26.5 64.5t-65.5 27.5t-66 -27.5t-27 -64.5q0 -39 -26.5 -65.5t-63.5 -26.5q-39 0 -64.5 26.5t-25.5 65.5q0 82 44 148.5 t116 99.5v475h-119q-37 0 -63.5 26.5t-26.5 63.5zM479 358q70 -20 115 -61q49 43 115 61v459h-230v-459zM479 997h230v873h-230v-873zM889 997h405q90 0 169 35t138.5 94.5t93.5 138t34 169.5q0 90 -34 168.5t-93.5 138t-138.5 94.5t-169 35h-405v-873z" />
<glyph unicode="q" horiz-adv-x="2066" d="M84 1024q0 256 69.5 462t206.5 349q111 117 257.5 183.5t316.5 80.5q4 2 11 2h13q8 0 15.5 1t15.5 1h8h19h10h18q195 0 364 -68.5t292 -199.5q137 -143 207.5 -349t70.5 -462q0 -522 -276 -809q-35 -35 -73 -65.5t-79 -57.5q-4 -20 -4 -33q4 -66 51 -112q47 -47 113 -51 q29 -2 55.5 8t44.5 28q29 29 66 29t66 -29q27 -27 27 -63q0 -38 -27 -66q-92 -92 -226 -92h-12q-137 6 -236 105q-82 82 -100 190q-156 -53 -338 -53q-203 0 -372 66.5t-296 195.5q-137 141 -207.5 346t-70.5 463zM266 1024q0 -213 53.5 -378t155.5 -281v1323 q-102 -117 -155.5 -285t-53.5 -379zM659 221q78 -41 171.5 -63.5t199.5 -22.5q78 0 152 12q82 18 137 91t55 170q0 55 -18.5 103t-51 85t-76.5 57.5t-93 20.5q-31 0 -52.5 21.5t-21.5 52.5t21.5 52t52.5 21q80 0 151.5 -32.5t123.5 -88t83 -131t31 -161.5q0 -66 -19 -123 q16 14 32.5 27.5t31.5 29.5q225 231 225 682q0 219 -57.5 393t-169.5 291q-98 104 -230.5 157.5t-292.5 53.5h-6h-22q-199 0 -357 -84v-1614z" />
<glyph unicode="r" horiz-adv-x="2254" d="M90 1956q0 39 26.5 65.5t63.5 26.5h1118h5q125 -2 236.5 -51t193.5 -133t130 -196t48 -238q0 -106 -35 -204t-96.5 -175.5t-146.5 -134t-185 -82.5l340 -582q6 -6 14 -23q18 -35 54 -46q15 -4 29 -4q21 0 42 9q37 20 45 54q5 16 5 31q0 20 -9 40q-10 22 -10 43q0 13 4 27 q10 35 45 51q22 10 43 10q14 0 28 -4q36 -10 52 -45q30 -60 30 -123q0 -43 -14 -86q-35 -109 -137 -159q-29 -16 -60.5 -22.5t-62.5 -6.5q-70 0 -131 32.5t-100 94.5q-4 4 -7 8l-6 8l-391 672h-362v-473q72 -33 117 -99.5t45 -150.5q0 -39 -27 -64.5t-63 -25.5 q-37 0 -64 25.5t-27 64.5t-26.5 65.5t-65.5 26.5t-65.5 -26.5t-26.5 -65.5t-26.5 -64.5t-65.5 -25.5q-37 0 -63.5 25.5t-26.5 64.5t-26.5 65.5t-65.5 26.5t-66 -26.5t-27 -65.5t-26.5 -64.5t-63.5 -25.5q-39 0 -64.5 25.5t-25.5 64.5q0 84 44 149.5t114 98.5v475h-113 q-39 0 -64.5 26.5t-25.5 63.5q0 39 25.5 65.5t64.5 26.5h113v871h-117q-37 0 -63.5 26.5t-26.5 63.5zM479 354q66 -16 115 -61q49 43 115 61v459h-230v-459zM479 995h230v871h-230v-871zM889 995h405q90 0 169 34t138.5 93.5t93.5 138t34 169.5q0 90 -34 169.5t-93.5 139 t-138.5 93.5t-169 34h-405v-871z" />
<glyph unicode="s" horiz-adv-x="2129" d="M112 502q3 53 24.5 104t62.5 92q39 38 89 56q47 18 96 17h5q51 -1 102.5 -21.5t94.5 -59.5q31 -28 31 -69q0 -36 -27 -64q-27 -29 -65 -31h-5q-35 0 -61 27q-27 23 -64 30q-7 1 -14 1q-29 0 -53 -23q-14 -12 -20.5 -32.5t-7.5 -42t3 -40t14 -30.5q2 -4 3.5 -5t3.5 -5 q2 -6 37.5 -46.5t119.5 -87.5t224.5 -84.5t351.5 -37.5q111 0 208 14t183 43v733q-74 14 -165 22.5t-208 8.5h-86q-594 0 -786 252q-85 112 -85 255q0 75 23 158v4q0 2 2 2q4 20 16.5 51t37 68t63.5 76t94 78q260 182 705 182q150 0 263.5 -18.5t198.5 -47t144 -62.5 t100 -64q4 -4 13 -9q2 -2 4 -3t4 -3q96 -76 118 -184q6 -28 5 -55q0 -78 -45 -150q-29 -45 -71 -73t-92 -38q-25 -5 -51 -5q-26 1 -54 5q-54 10 -107 37q-35 19 -45 57q-4 13 -4 27q0 23 12 45q18 36 55 46q13 4 26 3q23 0 46 -12q12 -6 29.5 -12t35 -7t34 5t26.5 25 q17 26 17 51q-1 9 -3 19q-8 36 -45 67q-12 8 -20 12q-20 16 -61.5 43t-112 51.5t-174 43t-246.5 18.5q-104 0 -190.5 -11.5t-155.5 -27.5v-692q113 -18 276 -19h86q633 0 850 -260q101 -119 100 -276q0 -51 -10 -105v-6q-4 -25 -16 -61.5t-38 -80.5t-67 -92.5t-98 -95.5 q-47 -37 -113.5 -76.5t-156.5 -71.5t-207 -52.5t-262 -20.5q-244 0 -410 47t-269.5 107.5t-153.5 117t-62 76.5q-27 37 -40 89q-11 42 -11 84q0 10 1 20zM307 1482q0 -34 9 -72t36 -73q23 -29 64 -59.5t108 -54.5v575q-14 -8 -27.5 -15t-25.5 -16q-78 -51 -108.5 -98 t-34.5 -59q0 -6 -1 -11.5t-3 -11.5q-4 -16 -10.5 -43.5t-6.5 -61.5zM1636 297q10 8 21.5 15t21.5 18q43 35 71 68.5t45 62t25.5 49t8.5 29.5q0 2 1 5t1 7q5 30 5 67q0 18 -1 38q-4 60 -55 122q-23 27 -56.5 53.5t-87.5 51.5v-586z" />
<glyph unicode="t" horiz-adv-x="2228" d="M84 1769q0 57 21.5 107.5t59.5 88.5t88 59.5t107 21.5h1524q17 0 25 -2q49 -8 92 -31.5t74.5 -60.5t50 -84t18.5 -99q0 -57 -21.5 -107t-59.5 -88t-88 -59.5t-107 -21.5q-39 0 -65.5 26.5t-26.5 63.5q0 39 26.5 65.5t65.5 26.5t65.5 28t26.5 66q0 39 -26.5 67t-65.5 28 h-455v-1522q72 -33 118 -99.5t46 -152.5q0 -39 -26.5 -65.5t-65.5 -26.5t-65.5 26.5t-26.5 65.5t-27 66.5t-68 27.5q-39 0 -65.5 -27.5t-26.5 -66.5t-26.5 -65.5t-65.5 -26.5t-65.5 26.5t-26.5 65.5t-26.5 66.5t-67.5 27.5q-39 0 -65.5 -27.5t-26.5 -66.5t-27 -65.5 t-66 -26.5t-65.5 26.5t-26.5 65.5q0 86 46 152.5t118 99.5v1522h-455q-39 0 -65.5 -28t-26.5 -67t27 -66.5t65 -27.5q39 0 66 -26.5t27 -65.5q0 -37 -27 -63.5t-66 -26.5q-57 0 -107 21.5t-88 59.5t-59.5 88t-21.5 107zM997 358q68 -18 117 -61q49 43 117 61v1506h-234 v-1506z" />
<glyph unicode="u" horiz-adv-x="2383" d="M86 1958q0 37 26.5 63.5t63.5 26.5q39 0 64.5 -26.5t25.5 -63.5q0 -39 28 -65.5t66 -26.5q39 0 66 26.5t27 65.5q0 37 26.5 63.5t63.5 26.5q39 0 64.5 -26.5t25.5 -63.5q0 -39 27.5 -65.5t66.5 -26.5q37 0 64.5 26.5t27.5 65.5q0 37 25.5 63.5t64.5 26.5q37 0 63.5 -26.5 t26.5 -63.5q0 -84 -44 -150.5t-115 -99.5v-1495q150 -72 342 -72q164 0 298 51.5t232 151.5q221 227 221 672v684q-80 29 -131 97.5t-51 160.5q0 37 26.5 63.5t63.5 26.5q39 0 64.5 -26.5t25.5 -63.5q0 -39 28 -65.5t66 -26.5q37 0 65 26.5t28 65.5q0 37 26.5 63.5 t63.5 26.5t63.5 -26.5t26.5 -63.5q0 -92 -51.5 -160.5t-130.5 -97.5v-684q0 -514 -273 -797q-123 -129 -291 -194.5t-370 -65.5q-201 0 -368 65.5t-292 194.5q-135 139 -205.5 341t-70.5 456v692q-72 33 -116 99.5t-44 150.5zM428 1016q0 -223 59.5 -392t169.5 -284v1352 q-66 18 -114 61q-49 -43 -115 -61v-676z" />
<glyph unicode="v" horiz-adv-x="2334" d="M82 1962q0 39 26.5 64.5t63.5 25.5t63.5 -25.5t26.5 -64.5t26.5 -65.5t65.5 -26.5t65.5 26.5t26.5 65.5t27 64.5t64 25.5q39 0 64.5 -25.5t25.5 -64.5t26.5 -65.5t65.5 -26.5t65.5 26.5t26.5 65.5t26.5 64.5t63.5 25.5q39 0 64.5 -25.5t25.5 -64.5q0 -74 -35.5 -135.5 t-95.5 -97.5l488 -1160l505 1151q-66 35 -105.5 99.5t-39.5 142.5q0 39 26.5 64.5t63.5 25.5t63.5 -25.5t26.5 -64.5t27 -65.5t65 -26.5q39 0 66 26.5t27 65.5t26.5 64.5t63.5 25.5q39 0 64.5 -25.5t25.5 -64.5q0 -98 -59.5 -171t-151.5 -95l-594 -1346q78 -29 127 -98.5 t49 -157.5q0 -37 -25.5 -63.5t-64.5 -26.5q-37 0 -63.5 26.5t-26.5 63.5q0 39 -26.5 65.5t-65.5 26.5t-65.5 -26.5t-26.5 -65.5q0 -37 -27 -63.5t-64 -26.5t-63.5 26.5t-26.5 63.5q0 39 -26.5 65.5t-65.5 26.5t-65.5 -26.5t-26.5 -65.5q0 -37 -26.5 -63.5t-63.5 -26.5 q-39 0 -64.5 26.5t-25.5 63.5q0 74 34.5 135.5t94.5 98.5l-576 1376q-82 29 -134 97.5t-52 160.5zM461 1712l563 -1347q84 -10 145 -68q35 31 76 49l-565 1346q-82 12 -143 67q-37 -33 -76 -47z" />
<glyph unicode="w" horiz-adv-x="3649" d="M86 1970q0 39 26.5 65.5t67.5 26.5q39 0 65.5 -26.5t26.5 -65.5q0 -37 27 -63.5t63 -26.5q37 0 64 26.5t27 63.5q0 39 26.5 65.5t65.5 26.5q41 0 67.5 -26.5t26.5 -65.5q0 -37 26.5 -63.5t63.5 -26.5t63.5 26.5t26.5 63.5q0 39 26.5 65.5t65.5 26.5t67 -26.5t28 -65.5 q0 -74 -36 -136t-96 -99l484 -1155l348 788l-141 340q-82 29 -134.5 99.5t-52.5 162.5q0 39 27 65.5t65 26.5q39 0 67 -26.5t28 -65.5q0 -37 25.5 -63.5t64.5 -26.5q37 0 62.5 26.5t25.5 63.5q0 39 27.5 65.5t66.5 26.5t66.5 -26.5t27.5 -65.5q0 -37 25.5 -63.5t62.5 -26.5 q39 0 64.5 26.5t25.5 63.5q0 39 28 65.5t67 26.5t65.5 -26.5t26.5 -65.5q0 -74 -35 -136t-94 -99l483 -1155l506 1146q-66 35 -105.5 99.5t-39.5 144.5q0 39 26.5 65.5t65.5 26.5t66.5 -26.5t27.5 -65.5q0 -37 25.5 -63.5t64.5 -26.5q37 0 62.5 26.5t25.5 63.5 q0 39 27.5 65.5t66.5 26.5t67 -26.5t28 -65.5q0 -49 -16.5 -93t-45.5 -80t-68.5 -61.5t-85.5 -35.5l-593 -1346q78 -31 127 -100.5t49 -157.5q0 -39 -27 -66.5t-65 -27.5q-39 0 -67 27.5t-28 66.5q0 37 -25.5 63.5t-64.5 26.5q-37 0 -62.5 -26.5t-25.5 -63.5 q0 -39 -27.5 -66.5t-66.5 -27.5t-66.5 27.5t-27.5 66.5q0 37 -25.5 63.5t-64.5 26.5q-37 0 -62.5 -26.5t-25.5 -63.5q0 -39 -28 -66.5t-67 -27.5t-66.5 27.5t-27.5 66.5q0 74 36 135.5t95 98.5l-336 803l-344 -779q78 -31 128 -100.5t50 -157.5q0 -39 -27.5 -66.5 t-66.5 -27.5t-65.5 27.5t-26.5 66.5q0 37 -26.5 63.5t-63.5 26.5t-63.5 -26.5t-26.5 -63.5q0 -39 -27.5 -66.5t-66.5 -27.5t-66 27.5t-27 66.5q0 37 -26.5 63.5t-63.5 26.5t-63.5 -26.5t-26.5 -63.5q0 -39 -26.5 -66.5t-67.5 -27.5q-39 0 -65.5 27.5t-26.5 66.5 q0 74 35 135.5t94 98.5l-578 1378q-82 29 -134 99.5t-52 162.5zM473 1716l563 -1347q41 -4 78 -21.5t66 -44.5q16 14 34.5 25.5t38.5 19.5l-565 1348q-78 12 -143 67q-27 -27 -72 -47zM1763 1716l566 -1347q41 -4 77.5 -21.5t65.5 -44.5q35 31 72 45l-564 1348 q-82 12 -143 67q-16 -16 -34.5 -26.5t-39.5 -20.5z" />
<glyph unicode="x" horiz-adv-x="2144" d="M92 92q0 98 59.5 171t149.5 95l537 553l-572 795q-78 29 -126 98.5t-48 155.5q0 39 25.5 64.5t64.5 25.5q37 0 63.5 -25.5t26.5 -64.5t27 -65.5t66 -26.5t65.5 26.5t26.5 65.5t26.5 64.5t63.5 25.5t63.5 -25.5t26.5 -64.5t26.5 -65.5t65.5 -26.5t65.5 26.5t26.5 65.5 t26.5 64.5t63.5 25.5q39 0 64.5 -25.5t25.5 -64.5q0 -72 -33.5 -131.5t-88.5 -95.5l323 -449l430 445q-59 35 -94 96t-35 135q0 39 26.5 64.5t63.5 25.5q39 0 64.5 -25.5t25.5 -64.5t27 -65.5t66 -26.5t65.5 26.5t26.5 65.5t26.5 64.5t63.5 25.5q39 0 65.5 -25.5t26.5 -64.5 q0 -92 -54 -163t-141 -97l-546 -563l567 -789q78 -29 127 -98.5t49 -157.5q0 -37 -26.5 -63.5t-63.5 -26.5t-63.5 26.5t-26.5 63.5q0 39 -26.5 65.5t-65.5 26.5t-65.5 -26.5t-26.5 -65.5q0 -37 -27 -63.5t-64 -26.5q-39 0 -64.5 26.5t-25.5 63.5q0 39 -26.5 65.5t-65.5 26.5 t-65.5 -26.5t-26.5 -65.5q0 -37 -26.5 -63.5t-63.5 -26.5q-39 0 -65.5 26.5t-26.5 63.5q0 72 33.5 132.5t89.5 97.5l-318 440l-430 -443q55 -37 88 -96t33 -131q0 -37 -26.5 -63.5t-63.5 -26.5t-63.5 26.5t-26.5 63.5q0 39 -27 65.5t-65 26.5q-39 0 -66 -26.5t-27 -65.5 q0 -37 -26.5 -63.5t-63.5 -26.5q-39 0 -64.5 26.5t-25.5 63.5zM481 1714l975 -1352q80 -12 141 -67q27 27 64 43l-975 1354q-80 12 -139 65q-27 -23 -66 -43z" />
<glyph unicode="y" horiz-adv-x="2316" d="M84 1954q0 39 26.5 65.5t63.5 26.5q39 0 64.5 -26.5t25.5 -65.5t27.5 -65.5t66.5 -26.5t66 26.5t27 65.5t26.5 65.5t63.5 26.5q39 0 64.5 -26.5t25.5 -65.5t27.5 -65.5t66.5 -26.5q37 0 64.5 26.5t27.5 65.5t25.5 65.5t64.5 26.5q37 0 63.5 -26.5t26.5 -65.5 q0 -74 -35.5 -135.5t-95.5 -98.5l494 -1177l487 1169q-70 35 -111.5 99.5t-41.5 146.5q0 37 26.5 63.5t63.5 26.5q39 0 64.5 -26.5t25.5 -63.5q0 -39 27.5 -65.5t66.5 -26.5q37 0 64.5 26.5t27.5 65.5q0 37 27 63.5t63 26.5q37 0 64 -26.5t27 -63.5q0 -98 -58.5 -171 t-146.5 -95l-946 -2259q-31 -84 -101.5 -131t-157.5 -47q-49 0 -90 14q-53 18 -94 55t-64.5 84t-27.5 100q-1 10 -1 20q0 44 15 87q12 37 46 53q19 10 38 10q16 0 31 -6q35 -12 52 -46q11 -20 11 -39q0 -15 -6 -29q-5 -15 -5 -30q0 -21 10 -41q18 -34 53 -46q16 -5 31 -5 q21 0 42 9q35 16 48 51q0 2 1 2t1 2v2l139 330l-791 1862q-82 29 -134 98.5t-52 161.5zM465 1702l694 -1636l105 249q-8 8 -15 25l-563 1343q-88 12 -145 68q-35 -31 -76 -49z" />
<glyph unicode="z" horiz-adv-x="2177" d="M102 1763q0 57 22.5 109.5t60.5 90.5t90.5 60.5t111.5 22.5h1585h4q33 0 58 -16q33 -23 39 -61q1 -8 1 -16q0 -29 -18 -55l-557 -794h164q33 0 54.5 -22.5t21.5 -55.5q0 -31 -21.5 -53.5t-54.5 -22.5h-272l-537 -764h942q39 0 66.5 27t27.5 68t-27.5 68.5t-66.5 27.5 q-41 0 -67.5 26.5t-26.5 65.5q0 41 26.5 67.5t67.5 26.5q57 0 109.5 -22.5t90.5 -60.5t60.5 -90t22.5 -109q0 -59 -22.5 -110.5t-60.5 -89.5t-90.5 -60.5t-109.5 -22.5h-1587q-31 0 -53 16q-6 4 -15 9q-31 23 -38 61q-2 9 -2 17q0 28 18 53l561 796h-164q-33 0 -54.5 22.5 t-21.5 53.5q0 33 21.5 55.5t54.5 22.5h270l531 754h-930q-41 0 -68.5 -28t-27.5 -67q0 -41 27.5 -68.5t68.5 -27.5q39 0 65.5 -26.5t26.5 -67.5q0 -39 -26.5 -65.5t-65.5 -26.5q-59 0 -111.5 22.5t-90.5 60.5t-60.5 89t-22.5 110zM371 186h254l1175 1672h-254z" />
<glyph unicode="{" horiz-adv-x="681" d="M74 1024q0 35 22.5 57.5t57.5 22.5h14q39 4 64.5 33.5t25.5 68.5v922q0 55 20.5 103t56.5 84t84 56.5t103 20.5q33 0 56.5 -22.5t23.5 -57.5q0 -33 -23.5 -56.5t-56.5 -23.5q-43 0 -73.5 -30.5t-30.5 -73.5v-922q0 -53 -20.5 -100t-55.5 -82q35 -35 55.5 -83t20.5 -101 v-908v-10q4 -41 32.5 -67.5t69.5 -26.5q35 0 57.5 -23.5t22.5 -56.5q0 -35 -22.5 -57.5t-57.5 -22.5q-55 0 -103 20.5t-84 56.5t-56.5 84t-20.5 103q0 4 1 5.5t1 5.5v897q0 41 -25.5 69.5t-64.5 34.5h-14q-35 0 -57.5 22.5t-22.5 57.5z" />
<glyph unicode="|" horiz-adv-x="342" d="M92 -86v2232q0 33 22.5 56.5t57.5 23.5q33 0 56.5 -23.5t23.5 -56.5v-2232q0 -33 -23.5 -56.5t-56.5 -23.5q-35 0 -57.5 23.5t-22.5 56.5z" />
<glyph unicode="}" horiz-adv-x="681" d="M80 -252q0 33 22.5 56.5t57.5 23.5q43 0 73.5 30.5t30.5 73.5v908q0 53 19.5 101t54.5 83q-35 35 -54.5 82t-19.5 100v922v8q-4 41 -33.5 68.5t-70.5 27.5q-33 0 -56.5 23.5t-23.5 56.5q0 35 23.5 57.5t56.5 22.5q55 0 103 -20.5t84 -56.5t56.5 -84t20.5 -103v-10v-912 q0 -39 25.5 -68.5t64.5 -33.5h14q33 0 56.5 -22.5t23.5 -57.5t-23.5 -57.5t-56.5 -22.5h-14q-39 -6 -64.5 -34.5t-25.5 -69.5v-908q0 -55 -20.5 -103t-56.5 -84t-84 -56.5t-103 -20.5q-35 0 -57.5 22.5t-22.5 57.5z" />
<glyph unicode="~" horiz-adv-x="1150" d="M89 1877.5q1 12.5 42 18.5l277 39q41 6 66.5 29t21.5 47q-4 27 21.5 36t64.5 -3l442 -139q39 -12 38 -24.5t-42 -18.5l-277 -39q-41 -6 -66.5 -28.5t-21.5 -47.5q4 -27 -20.5 -36t-63.5 3l-444 139q-39 12 -38 24.5z" />
<glyph unicode="&#xa2;" horiz-adv-x="952" d="M80 1016q0 96 36 183t103 155q113 113 268 135v55q0 31 21.5 52.5t52.5 21.5t52.5 -21.5t21.5 -52.5v-55q104 -14 194 -78q25 -16 30 -47t-11 -55q-16 -25 -46 -31t-57 12q-53 33 -110 49v-647q57 14 110 49q27 18 56.5 12.5t46.5 -30.5q16 -25 11 -55.5t-30 -46.5 q-90 -63 -194 -78v-56q0 -31 -21.5 -52t-52.5 -21t-52.5 21.5t-21.5 51.5v56q-156 23 -268 135q-139 139 -139 338zM227 1016q0 -59 19.5 -112.5t54.5 -96.5t83 -72.5t103 -42.5v647q-55 -12 -103 -41.5t-83 -72.5t-54.5 -96.5t-19.5 -112.5z" />
<glyph unicode="&#xa3;" horiz-adv-x="1900" d="M102 778q0 41 30 72t73 31h53q-23 94 -40 189t-19 190q-4 176 66.5 331.5t201.5 266.5q53 45 129 87t177 69.5t229 33.5t288 -25q10 -4 17.5 -6t15.5 -6q33 -10 67.5 -21.5t71.5 -29.5q12 -2 23 -10q55 -33 94 -79t56.5 -97.5t14.5 -106.5t-30 -106q-41 -80 -112.5 -123 t-157.5 -43q-68 0 -133 26q-41 16 -57.5 54t-0.5 77q16 41 54 57.5t77 0.5q104 -41 150 43q18 37 -3.5 69.5t-47.5 49.5q-6 0 -11 4q-193 92 -334 0q-53 -33 -96 -87.5t-73.5 -122t-47 -145.5t-14.5 -157q2 -94 20.5 -190.5t40.5 -192.5h248q41 0 71 -31t30 -72t-30 -71.5 t-71 -30.5h-198q31 -141 37 -276.5t-56 -258.5q20 -4 39 -10t37 -12q88 -27 175 -49.5t172 -31.5t167 1t162 51q39 20 79 7t58 -52q18 -37 6 -77t-51 -58q-86 -43 -170 -61.5t-168 -18.5q-129 0 -251 30.5t-238 65.5q-74 20 -147 41t-143.5 33t-140 12t-137.5 -16 q-27 -16 -51 -16q-33 -10 -57 -25q-39 -20 -78 -7t-59 52q-18 37 -5 77t50 58q29 14 55.5 25.5t54.5 19.5q43 37 62.5 85t22.5 109.5t-9 136.5t-33 165h-102q-43 0 -73 30.5t-30 71.5zM401 1264q2 -92 21.5 -188.5t44.5 -194.5h199q-23 92 -38.5 186t-17.5 193 q-4 170 46.5 309t127.5 237q-109 -39 -186 -104q-94 -78 -146.5 -193.5t-50.5 -244.5zM516 676q27 -121 35 -239t-27 -222q45 -2 89 -7t87 -15q33 45 45.5 99t11.5 114.5t-12.5 128t-29.5 141.5h-199z" />
<glyph unicode="&#xa9;" horiz-adv-x="997" d="M86 1022q0 86 33 160.5t88 131t131 89.5t162 33t160.5 -33t130 -89.5t88 -131t32.5 -160.5t-32.5 -161t-88 -131t-130 -89t-160.5 -33t-162 33t-131 89t-88 131t-33 161zM223 1022q0 -57 21.5 -107.5t59.5 -88.5t88.5 -59.5t107.5 -21.5t107 21.5t88 59.5t59.5 88.5 t21.5 107.5t-21.5 107.5t-59.5 88t-88 59t-107 21.5t-107.5 -21.5t-88.5 -59t-59.5 -88t-21.5 -107.5zM311 1022q0 39 15.5 75t41 61.5t60.5 40.5t74 15q47 0 88 -21.5t67 -57.5q14 -20 10.5 -43t-22.5 -37q-18 -14 -41.5 -10t-38.5 22q-23 33 -63 33q-33 0 -55.5 -22.5 t-22.5 -55.5t22.5 -55.5t55.5 -22.5q41 0 63 33q14 18 37 22t43 -10q18 -14 22.5 -36.5t-10.5 -43.5q-27 -37 -67.5 -58.5t-87.5 -21.5q-39 0 -74 15.5t-60.5 41t-41 60.5t-15.5 76z" />
<glyph unicode="&#xab;" horiz-adv-x="872" d="M80 1024q0 29 20 49l258 244q20 20 49 19t48 -21q20 -23 19 -50.5t-21 -45.5l-205 -195l205 -195q20 -18 21 -46.5t-19 -49.5q-18 -20 -49 -20q-27 0 -48 18l-258 244q-20 20 -20 49zM381 1024q0 29 20 49l258 244q20 20 48 19t49 -21q20 -23 19 -50.5t-21 -45.5 l-205 -195l205 -195q20 -18 21 -46.5t-19 -49.5q-18 -20 -49 -20q-29 0 -48 18l-258 244q-20 20 -20 49z" />
<glyph unicode="&#xad;" horiz-adv-x="1318" d="M91 1025.5q1 14.5 48 23.5l324 47q47 6 77.5 31.5t26.5 54.5q-4 31 25 42t74 -3l516 -162q47 -14 45 -28.5t-49 -22.5l-324 -47q-47 -6 -76.5 -32t-25.5 -55q4 -31 -25 -42t-74 4l-518 161q-45 14 -44 28.5z" />
<glyph unicode="&#xae;" horiz-adv-x="997" d="M86 1028q0 86 33 161t88 131t131 89t162 33t160.5 -33t130 -89t88 -131t32.5 -161t-32.5 -160.5t-88 -131t-130 -89.5t-160.5 -33t-162 33t-131 89.5t-88 131t-33 160.5zM223 1028q0 -57 21.5 -107.5t59.5 -88t88.5 -59t107.5 -21.5t107 21.5t88 59t59.5 88t21.5 107.5 t-21.5 107.5t-59.5 88.5t-88 59.5t-107 21.5t-107.5 -21.5t-88.5 -59.5t-59.5 -88.5t-21.5 -107.5zM367 899v258q0 23 17 39t40 16h84q20 0 45 -7t45 -23.5t34.5 -43t14.5 -65.5q0 -37 -11 -59.5t-24 -36.5l25 -55q10 -23 1 -44.5t-32 -31.5q-12 -4 -22 -4q-39 0 -52 35 l-26 55h-25v-33q0 -23 -16 -40t-41 -17q-23 0 -40 17.5t-17 39.5zM481 1047h27q8 0 17.5 3t9.5 23q0 18 -10.5 22.5t-18.5 4.5h-25v-53z" />
<glyph unicode="&#xb0;" d="M86 1997q0 86 58.5 144.5t144.5 58.5t144.5 -58.5t58.5 -144.5q0 -84 -60 -144q-55 -59 -143 -59q-86 0 -144.5 58.5t-58.5 144.5zM223 1997q0 -29 18.5 -47.5t47.5 -18.5t47 19q20 20 20 47q0 29 -19 47t-48 18t-47.5 -18.5t-18.5 -46.5z" />
<glyph unicode="&#xbb;" horiz-adv-x="874" d="M97.5 784q0.5 29 21.5 47l205 195l-205 195q-20 18 -21.5 45.5t19.5 50.5q20 20 48 21t48 -19l258 -244q21 -18 21 -49t-21 -49l-258 -244q-18 -18 -47 -18t-49 20t-19.5 49zM398.5 784q0.5 29 21.5 47l205 195l-205 195q-20 18 -21.5 45.5t19.5 50.5q20 20 48 21t48 -19 l258 -244q20 -18 21 -49q0 -31 -21 -49l-258 -244q-18 -18 -47 -18t-49 20t-19.5 49z" />
<glyph unicode="&#xd7;" horiz-adv-x="935" d="M98 735.5q0 32.5 23 57.5l235 233l-235 234q-23 23 -23 56.5t23 55.5q25 25 57.5 25t54.5 -25l236 -233l233 233q23 25 57 25t56 -25q23 -23 23 -56.5t-23 -55.5l-233 -234l233 -233q23 -25 23 -58t-23 -55q-25 -25 -55 -25q-33 0 -58 25l-233 233l-236 -233 q-23 -25 -55 -25q-33 0 -57 25q-23 23 -23 55.5z" />
<glyph unicode="&#xf7;" horiz-adv-x="958" d="M76 1024q0 35 22.5 57.5t57.5 22.5h647q33 0 56.5 -22.5t23.5 -57.5q0 -33 -23.5 -56.5t-56.5 -23.5h-647q-35 0 -57.5 23.5t-22.5 56.5zM317 715q0 66 47 114t115 48q66 0 114 -48.5t48 -113.5q0 -68 -48 -115t-114 -47q-68 0 -115 47t-47 115zM317 1317q0 68 47.5 115 t114.5 47q66 0 114 -47.5t48 -114.5q0 -68 -48 -115t-114 -47q-68 0 -115 47t-47 115zM430 715q0 -20 14.5 -34.5t34.5 -14.5t33.5 14t13.5 35q0 20 -13 33.5t-34 13.5q-20 0 -34.5 -13.5t-14.5 -33.5zM430 1317q0 -20 14.5 -33.5t34.5 -13.5t33.5 13t13.5 34 q0 20 -13.5 34.5t-33.5 14.5t-34.5 -14.5t-14.5 -34.5z" />
<glyph unicode="&#x2c6;" horiz-adv-x="794" d="M82 1722q0 29 18 47l244 259q20 20 49 20t49 -20l244 -259q20 -20 19.5 -47.5t-21.5 -48.5q-23 -20 -50.5 -19t-45.5 21l-195 205l-194 -205q-18 -20 -47 -21t-50 19q-20 18 -20 49z" />
<glyph unicode="&#x2dc;" horiz-adv-x="1150" d="M89 1877.5q1 12.5 42 18.5l277 39q41 6 66.5 29t21.5 47q-4 27 21.5 36t64.5 -3l442 -139q39 -12 38 -24.5t-42 -18.5l-277 -39q-41 -6 -66.5 -28.5t-21.5 -47.5q4 -27 -20.5 -36t-63.5 3l-444 139q-39 12 -38 24.5z" />
<glyph unicode="&#x2000;" horiz-adv-x="1225" />
<glyph unicode="&#x2001;" horiz-adv-x="2451" />
<glyph unicode="&#x2002;" horiz-adv-x="1225" />
<glyph unicode="&#x2003;" horiz-adv-x="2451" />
<glyph unicode="&#x2004;" horiz-adv-x="817" />
<glyph unicode="&#x2005;" horiz-adv-x="612" />
<glyph unicode="&#x2006;" horiz-adv-x="408" />
<glyph unicode="&#x2007;" horiz-adv-x="408" />
<glyph unicode="&#x2008;" horiz-adv-x="306" />
<glyph unicode="&#x2009;" horiz-adv-x="490" />
<glyph unicode="&#x200a;" horiz-adv-x="136" />
<glyph unicode="&#x2010;" horiz-adv-x="1318" d="M91 1025.5q1 14.5 48 23.5l324 47q47 6 77.5 31.5t26.5 54.5q-4 31 25 42t74 -3l516 -162q47 -14 45 -28.5t-49 -22.5l-324 -47q-47 -6 -76.5 -32t-25.5 -55q4 -31 -25 -42t-74 4l-518 161q-45 14 -44 28.5z" />
<glyph unicode="&#x2011;" horiz-adv-x="1318" d="M91 1025.5q1 14.5 48 23.5l324 47q47 6 77.5 31.5t26.5 54.5q-4 31 25 42t74 -3l516 -162q47 -14 45 -28.5t-49 -22.5l-324 -47q-47 -6 -76.5 -32t-25.5 -55q4 -31 -25 -42t-74 4l-518 161q-45 14 -44 28.5z" />
<glyph unicode="&#x2012;" horiz-adv-x="1318" d="M91 1025.5q1 14.5 48 23.5l324 47q47 6 77.5 31.5t26.5 54.5q-4 31 25 42t74 -3l516 -162q47 -14 45 -28.5t-49 -22.5l-324 -47q-47 -6 -76.5 -32t-25.5 -55q4 -31 -25 -42t-74 4l-518 161q-45 14 -44 28.5z" />
<glyph unicode="&#x2013;" horiz-adv-x="1734" d="M95 1025.5q1 14.5 48 23.5l324 47q47 6 77.5 31.5t26.5 54.5q-4 31 25 42t74 -3l286 -91q25 25 23 52q-4 31 24.5 42t73.5 -3l516 -162q47 -14 45 -28.5t-49 -22.5l-323 -47q-47 -6 -77 -32t-26 -55q4 -31 -24.5 -42t-73.5 4l-287 90q-27 -27 -22 -52q4 -31 -25 -42 t-74 4l-518 161q-45 14 -44 28.5z" />
<glyph unicode="&#x2014;" horiz-adv-x="2160" d="M97 1025.5q1 14.5 48 23.5l324 47q47 6 78 31.5t26 54.5q-4 31 25 42t74 -3l291 -93q29 25 24 54q-4 31 24.5 42t73.5 -3l293 -93q27 27 25 54q-4 31 24.5 42t73.5 -3l516 -162q47 -14 45 -28.5t-49 -22.5l-323 -47q-47 -6 -77 -32t-26 -55q4 -31 -24.5 -42t-73.5 4 l-293 92q-27 -27 -25 -54q4 -31 -24.5 -42t-73.5 4l-291 92q-29 -25 -24 -54q4 -31 -24.5 -42t-74.5 4l-518 161q-45 14 -44 28.5z" />
<glyph unicode="&#x2018;" d="M86 1847v8v9q0 39 11.5 91t41 102t78.5 90t127 53h10q25 0 44.5 -16.5t23.5 -41.5q4 -29 -12.5 -51.5t-44.5 -26.5q-14 -4 -26.5 -8t-23.5 -8q76 -10 126.5 -66.5t50.5 -134.5q0 -86 -58.5 -144t-144.5 -58t-144.5 58t-58.5 144zM223 1847q0 -29 18.5 -48t47.5 -19t48 19 t19 48t-19.5 47.5t-47.5 18.5q-29 0 -47 -19q-18 -18 -19 -47z" />
<glyph unicode="&#x2019;" horiz-adv-x="579" d="M86 1997q0 86 59.5 144.5t145.5 58.5q41 0 78 -15.5t64.5 -43t44 -64.5t16.5 -80q0 -6 -2 -8q2 -4 2 -9q0 -39 -12.5 -91t-41 -102t-79 -90t-125.5 -52h-11q-25 0 -44 16t-23 41q-4 29 12 51.5t45 26.5q14 4 25.5 8t21.5 8q-74 10 -125 66.5t-51 134.5zM223 1997 q0 -29 19.5 -47.5t48.5 -18.5q27 0 45 19q20 18 20 47t-19.5 48t-45.5 19q-29 0 -48.5 -19t-19.5 -48z" />
<glyph unicode="&#x201a;" d="M86 199q0 41 15.5 77.5t43 64.5t64.5 44t80 16t80 -16t64.5 -44t43 -64.5t15.5 -77.5v-4v-15q0 -39 -11.5 -91t-41 -102t-80 -89t-126.5 -52q-2 0 -4 -1t-6 -1q-25 0 -44 16.5t-23 43.5q-4 29 12 51t45 27q25 2 49 16q-76 10 -126 66.5t-50 134.5zM223 199 q0 -29 18.5 -48.5t47.5 -19.5q27 1 47 21t20 47q0 29 -19.5 47t-47.5 18q-29 0 -47.5 -18.5t-18.5 -46.5z" />
<glyph unicode="&#x201c;" horiz-adv-x="1028" d="M88 1847v8v9q0 39 11.5 91t41 102t78.5 90t127 53h10q25 0 44.5 -16.5t23.5 -41.5q4 -29 -12.5 -51.5t-44.5 -26.5q-14 -4 -26.5 -8t-23.5 -8q76 -10 126.5 -66.5t50.5 -134.5q0 -86 -58.5 -144t-144.5 -58t-144.5 58t-58.5 144zM225 1847q0 -29 18.5 -48t47.5 -19t48 19 t19 48t-19.5 47.5t-47.5 18.5q-29 0 -47 -19q-18 -18 -19 -47zM532 1847q0 6 3 8q-2 4 -3 9q0 39 12.5 91t41 102t79 90t126.5 53h10q25 0 44 -16.5t23 -41.5q4 -29 -12 -51.5t-45 -26.5q-14 -4 -25.5 -8t-21.5 -8q74 -10 125 -66.5t51 -134.5q0 -86 -59.5 -144t-145.5 -58 q-41 0 -77.5 15t-64.5 43t-44.5 64.5t-16.5 79.5zM670 1847q0 -29 19.5 -48t45.5 -19q29 0 48.5 19t19.5 48t-19.5 47.5t-48.5 18.5q-27 0 -45 -19q-20 -18 -20 -47z" />
<glyph unicode="&#x201d;" horiz-adv-x="1028" d="M88 1997q0 86 59.5 144.5t145.5 58.5q41 0 78 -15.5t64.5 -43t44 -64.5t16.5 -80q0 -6 -2 -8q2 -4 2 -9q0 -39 -12.5 -91t-41 -102t-79 -90t-125.5 -52h-11q-25 0 -44 16t-23 41q-4 29 12 51.5t45 26.5q14 4 25.5 8t21.5 8q-74 10 -125 66.5t-51 134.5zM225 1997 q0 -29 19.5 -47.5t48.5 -18.5q27 0 45 19q20 18 20 47t-19.5 48t-45.5 19q-29 0 -48.5 -19t-19.5 -48zM535 1997q0 86 58 144.5t144 58.5t144.5 -58.5t58.5 -144.5v-8v-9q0 -39 -11 -91t-41 -102t-80 -90t-126 -52h-10q-25 0 -44.5 16t-23.5 41q-4 29 12.5 51.5t45.5 26.5 q14 4 26 8t23 8q-76 10 -126 66.5t-50 134.5zM670 1997q0 -29 19.5 -47.5t47.5 -18.5q29 0 47 19q18 18 19 47q0 29 -18.5 48t-47.5 19t-48 -19t-19 -48z" />
<glyph unicode="&#x201e;" horiz-adv-x="1028" d="M88 207q0 86 59.5 144.5t145.5 58.5q41 0 78 -15.5t64.5 -43t44 -64.5t16.5 -80q0 -6 -2 -8q2 -4 2 -9q0 -39 -12.5 -91t-41 -102t-79 -90t-125.5 -52h-11q-25 0 -44 16t-23 41q-4 29 12 51.5t45 26.5q14 4 25.5 8t21.5 8q-74 10 -125 66.5t-51 134.5zM225 207 q0 -29 19.5 -47.5t48.5 -18.5q27 0 45 19q20 18 20 47t-19.5 48t-45.5 19q-29 0 -48.5 -19t-19.5 -48zM535 207q0 86 58 144.5t144 58.5t144.5 -58.5t58.5 -144.5v-8v-9q0 -39 -11 -91t-41 -102t-80 -90t-126 -52h-10q-25 0 -44.5 16t-23.5 41q-4 29 12.5 51.5t45.5 26.5 q14 4 26 8t23 8q-76 10 -126 66.5t-50 134.5zM670 207q0 -29 19.5 -47.5t47.5 -18.5q29 0 47 19q18 18 19 47q0 29 -18.5 48t-47.5 19t-48 -19t-19 -48z" />
<glyph unicode="&#x2022;" d="M86 1020q0 86 58.5 144.5t144.5 58.5t144.5 -58.5t58.5 -144.5q0 -84 -60 -143q-55 -60 -143 -60q-86 0 -144.5 58.5t-58.5 144.5zM223 1020q0 -29 18.5 -47.5t47.5 -18.5t47 19q20 20 20 47q0 29 -19 47t-48 18t-47.5 -18t-18.5 -47z" />
<glyph unicode="&#x2026;" horiz-adv-x="1503" d="M90 201q0 86 58.5 144t144.5 58t144.5 -58t58.5 -144q0 -84 -60 -144q-55 -59 -143 -59q-86 0 -144.5 58.5t-58.5 144.5zM227 201q0 -29 18.5 -47.5t47.5 -18.5q29 1 47 19q20 20 20 47q0 29 -19 48t-48 19t-47.5 -19.5t-18.5 -47.5zM549 201q0 86 58.5 144t144.5 58 t144 -58t58 -144q0 -84 -59 -144q-55 -59 -143 -59q-86 0 -144.5 58.5t-58.5 144.5zM686 201q0 -29 18.5 -47.5t47.5 -18.5q29 1 47 19q20 20 20 47q0 29 -19.5 48t-47.5 19q-29 0 -47.5 -19.5t-18.5 -47.5zM1008 201q0 86 58 144t144 58t144.5 -58t58.5 -144 q0 -84 -59 -144q-55 -59 -144 -59q-86 0 -144 58.5t-58 144.5zM1145 201q0 -29 18.5 -47.5t46.5 -18.5q29 1 47 19q20 20 21 47q0 29 -19.5 48t-48.5 19t-47 -19.5t-18 -47.5z" />
<glyph unicode="&#x202f;" horiz-adv-x="490" />
<glyph unicode="&#x2039;" horiz-adv-x="563" d="M74 1024q0 29 20 49l258 244q20 20 48 19t49 -21q20 -23 19 -50.5t-22 -45.5l-204 -195l204 -195q20 -18 21.5 -46.5t-18.5 -49.5q-18 -20 -50 -20q-29 0 -47 18l-258 244q-20 20 -20 49z" />
<glyph unicode="&#x203a;" horiz-adv-x="563" d="M95.5 782q0.5 29 21.5 47l205 195l-205 195q-20 18 -21.5 45.5t19.5 50.5q20 20 47.5 21t48.5 -19l258 -244q20 -20 20 -49t-20 -49l-258 -244q-18 -18 -47 -18q-31 0 -49 20q-20 20 -19.5 49z" />
<glyph unicode="&#x205f;" horiz-adv-x="612" />
<glyph unicode="&#x20ac;" horiz-adv-x="2004" d="M82 813q0 37 25.5 62.5t62.5 25.5h88q-2 29 -3 59.5t-1 61.5q0 33 1 64.5t3 62.5h-88q-37 0 -62.5 26.5t-25.5 63.5t25.5 63.5t62.5 26.5h115q31 141 89 258t144 207q117 125 277.5 190.5t347.5 65.5h2h2q215 0 386 -74.5t292 -218.5q8 -10 12 -18q55 -86 49 -176 t-74 -154q-39 -35 -84 -52.5t-92 -17.5q-104 0 -192 78q-29 23 -30 59.5t22 63.5q25 29 60.5 30t64.5 -22q35 -33 69.5 -35t63.5 25q14 12 17 28.5t-1 33t-12 31t-17 24.5q-94 109 -229 164t-305 55l-2 2q0 -2 -2 -2q-193 0 -340 -80v-465h403q37 0 63.5 -26.5t26.5 -63.5 t-26.5 -63.5t-63.5 -26.5h-403v-248h403q37 0 63.5 -25.5t26.5 -62.5t-26.5 -63.5t-63.5 -26.5h-403v-465q154 -82 352 -82q170 0 304 55.5t231 163.5v2q8 10 16 24.5t12 31t1 33t-17 28.5q-61 55 -135 -10q-27 -23 -63 -22t-60 30q-25 27 -23 62.5t31 60.5q41 37 89 56.5 t96.5 21.5t95.5 -15.5t86 -54.5q70 -63 76 -154.5t-50 -175.5q-4 -4 -6 -9t-6 -9q-121 -145 -292 -219t-386 -74q-193 0 -353.5 63.5t-281.5 186.5q-176 182 -237 471h-113q-37 0 -62.5 26.5t-25.5 63.5zM428 1022q0 -63 6 -121h193v248h-193q-6 -61 -6 -127zM463 723 q49 -199 164 -328v328h-164zM465 1329h162v326q-111 -127 -162 -326z" />
<glyph unicode="&#x2122;" horiz-adv-x="1323" d="M88 1993q0 23 16.5 40t40.5 17h330q23 0 40 -17.5t17 -39.5q0 -23 -17 -40.5t-40 -17.5h-108v-379q0 -25 -16.5 -41t-41.5 -16q-23 0 -40 16.5t-17 40.5v379h-107q-25 0 -41 17.5t-16 40.5zM518 1556v287q0 43 16.5 81t44 65.5t65.5 44t81 16.5q90 0 149 -65 q60 65 150 65q43 0 81 -16.5t65.5 -44t44 -65.5t16.5 -81v-287q0 -25 -16.5 -41t-40.5 -16q-23 0 -40.5 16.5t-17.5 40.5v287q0 39 -26.5 65.5t-65.5 26.5t-65.5 -26.5t-26.5 -65.5v-287q0 -25 -17.5 -41t-40.5 -16t-40 16.5t-17 40.5v287q0 39 -26.5 65.5t-65.5 26.5 t-65.5 -26.5t-26.5 -65.5v-287q0 -25 -17.5 -41t-40.5 -16t-40 16.5t-17 40.5z" />
<glyph unicode="&#xe000;" horiz-adv-x="2048" d="M0 0v2048h2048v-2048h-2048z" />
</font>
</defs>
</svg>
